<svg width="415" height="555" viewBox="0 0 415 555" fill="none" xmlns="http://www.w3.org/2000/svg">
<path d="M64.0901 422.138C64.0801 422.348 64.06 422.558 64.04 422.778C64.02 423.058 64 423.348 63.98 423.638C63.09 435.618 61.02 462.608 60.15 467.778C59.03 474.478 54.85 480.548 48.43 480.268C45.69 480.148 40.04 480.198 34.02 480.268C25.95 480.358 17.21 480.498 13.86 480.338C7.99996 480.058 2.42006 475.598 1.59006 467.788C1.57006 467.618 1.55 467.448 1.53 467.268C1.52 467.158 1.50997 467.038 1.49997 466.918C1.48997 466.788 1.47006 466.668 1.46006 466.528C1.46006 466.458 1.45004 466.398 1.44004 466.328C1.42004 466.098 1.39997 465.848 1.36997 465.598C1.36997 465.518 1.36007 465.448 1.35007 465.368C1.29007 464.738 1.23002 464.048 1.17002 463.308C1.17002 463.218 1.15 463.118 1.15 463.028C1.15 463.008 1.15 462.988 1.15 462.978C1.14 462.808 1.11996 462.628 1.10996 462.458C1.05996 461.868 1.01006 461.258 0.960057 460.628C0.940057 460.438 0.930008 460.238 0.910008 460.048C0.890008 459.808 0.870071 459.568 0.850071 459.328C0.840071 459.138 0.820032 458.958 0.810032 458.768C0.810032 458.658 0.800003 458.548 0.780003 458.438C0.780003 458.328 0.759974 458.218 0.749974 458.108C0.749974 457.998 0.730066 457.888 0.720066 457.768C0.720066 457.658 0.700037 457.538 0.690037 457.428C0.670037 457.138 0.649969 456.838 0.619969 456.538C0.609969 456.418 0.600061 456.298 0.590061 456.178C0.490061 454.838 0.390013 453.438 0.290012 451.998C0.280012 451.788 0.259973 451.588 0.249973 451.378C0.249973 451.338 0.249973 451.298 0.249973 451.248C0.249973 451.118 0.230066 450.998 0.220066 450.868C0.190066 450.448 0.159978 450.028 0.129978 449.608C0.119978 449.418 0.100061 449.228 0.0900613 449.038C0.0900613 448.998 0.0900613 448.958 0.0900613 448.928C0.0800613 448.798 0.070032 448.668 0.060032 448.538C0.040032 448.188 0.00996363 447.838 -0.0100363 447.478C-0.0800364 446.408 -0.149997 445.318 -0.219997 444.228C-0.229997 444.058 -0.240027 443.898 -0.250027 443.728C-0.270027 443.458 -0.289953 443.188 -0.299953 442.918C-0.369953 441.838 -0.440027 440.748 -0.500027 439.658C-0.540027 438.928 -0.590031 438.198 -0.630031 437.468C-0.720031 435.918 -0.809929 434.378 -0.899929 432.878C-0.899929 432.728 -0.909948 432.578 -0.919948 432.428C-0.939948 432.128 -0.949997 431.838 -0.969997 431.538C-0.999997 431.058 -1.01994 430.578 -1.03994 430.098C-1.11994 428.508 -1.20005 426.958 -1.27005 425.488C-1.28005 425.248 -1.28995 424.998 -1.29995 424.758C-1.29995 424.688 -1.29995 424.618 -1.29995 424.548C-1.29995 424.378 -1.30997 424.208 -1.31997 424.048C-1.32997 423.808 -1.34 423.578 -1.35 423.348C-1.35 423.148 -1.37003 422.938 -1.38003 422.738C-1.38003 422.488 -1.39994 422.238 -1.40994 421.998C-1.48994 419.758 0.430003 418.668 2.53 417.908C6.51 416.468 12.76 415.398 16.66 415.008C22.61 414.418 33.98 414.148 39.48 414.498C45.94 414.908 57.02 416.268 61.66 417.898C63.71 418.618 64.28 419.958 64.11 422.168L64.0901 422.138Z" fill="#B6CBCE"/>
<g style="mix-blend-mode:screen" opacity="0.2">
<path d="M48.7101 445.738C51.6869 445.738 54.1001 442.734 54.1001 439.028C54.1001 435.322 51.6869 432.318 48.7101 432.318C45.7333 432.318 43.3201 435.322 43.3201 439.028C43.3201 442.734 45.7333 445.738 48.7101 445.738Z" fill="#7C746D"/>
</g>
<g style="mix-blend-mode:multiply" opacity="0.37">
<path d="M34.0201 480.268C25.9501 480.358 17.2101 480.498 13.8601 480.338C8.00011 480.058 2.42021 475.598 1.59021 467.788C1.57021 467.618 1.55015 467.448 1.53015 467.268C1.52015 467.158 1.51012 467.038 1.50012 466.918C1.49012 466.788 1.47021 466.668 1.46021 466.528C1.46021 466.458 1.45019 466.398 1.44019 466.328C1.42019 466.098 1.40012 465.848 1.37012 465.598C1.37012 465.518 1.36022 465.448 1.35022 465.368C1.29022 464.738 1.23017 464.048 1.17017 463.308C1.17017 463.218 1.15015 463.118 1.15015 463.028C1.15015 463.008 1.15015 462.988 1.15015 462.978C1.14015 462.808 1.12011 462.628 1.11011 462.458C1.06011 461.868 1.01021 461.258 0.960205 460.628C0.940205 460.438 0.930156 460.238 0.910156 460.048C0.890156 459.808 0.87022 459.568 0.85022 459.328C0.84022 459.138 0.820181 458.958 0.810181 458.768C0.810181 458.658 0.800151 458.548 0.780151 458.438C0.780151 458.328 0.770122 458.218 0.750122 458.108C0.750122 457.998 0.730215 457.888 0.720215 457.768C0.720215 457.658 0.700186 457.548 0.690186 457.428C0.670186 457.138 0.650117 456.838 0.620117 456.538C0.610117 456.418 0.60021 456.298 0.59021 456.178C0.49021 454.838 0.390161 453.438 0.290161 451.998C0.280161 451.788 0.260122 451.588 0.250122 451.378C0.250122 451.338 0.250122 451.298 0.250122 451.248C0.250122 451.118 0.230215 450.998 0.220215 450.868C0.190215 450.448 0.160127 450.028 0.130127 449.608C0.120127 449.418 0.10021 449.228 0.09021 449.038C0.09021 448.998 0.09021 448.958 0.09021 448.928C0.08021 448.798 0.0701807 448.668 0.0601807 448.538C0.0401807 448.188 0.0101123 447.838 -0.0098877 447.478C-0.0798877 446.408 -0.149849 445.318 -0.219849 444.228C-0.229849 444.058 -0.239878 443.898 -0.249878 443.728C-0.269878 443.458 -0.289805 443.188 -0.299805 442.918C-0.369805 441.838 -0.439878 440.748 -0.499878 439.658C-0.539878 438.928 -0.589883 438.198 -0.629883 437.468C-0.719883 435.918 -0.80978 434.378 -0.89978 432.878C-0.89978 432.728 -0.9098 432.578 -0.9198 432.428C-0.9398 432.128 -0.949849 431.838 -0.969849 431.538C-0.999849 431.058 -1.01979 430.578 -1.03979 430.098C-1.11979 428.508 -1.1999 426.958 -1.2699 425.488C-1.2799 425.248 -1.2898 424.998 -1.2998 424.758C-1.2998 424.688 -1.2998 424.618 -1.2998 424.548C-1.2998 424.378 0.970102 429.768 10.4801 430.998C10.0101 443.868 13.6902 448.838 18.5402 457.498C23.4202 466.238 26.1001 471.978 35.9801 476.278C38.8401 477.528 37.4602 478.938 34.0502 480.308L34.0201 480.268Z" fill="#9B928E"/>
</g>
<path d="M0.170044 509.738L-1.27002 453.228L4.20007 453.158L4.93005 509.678L0.170044 509.738Z" fill="#564131"/>
<path d="M61.96 509.738L57.1899 509.678L57.9299 453.158L63.3899 453.228L61.96 509.738Z" fill="#564131"/>
<path d="M60.66 481.708C60.66 481.708 55.58 485.408 30.74 485.408C11.02 485.408 2.02002 481.708 2.02002 481.708V476.238C2.02002 476.238 8.14001 479.938 29.64 479.938C54.1 479.938 60.66 476.238 60.66 476.238V481.708Z" fill="#564131"/>
<path d="M19.4801 502.868H14.9302V480.418H20.4001L19.4801 502.868Z" fill="#564131"/>
<path d="M49.3899 502.188H44.7699L43.9199 479.728H49.3899V502.188Z" fill="#564131"/>
<path d="M63.22 421.308C63.22 423.538 55.7099 425.458 44.9099 426.318C44.3099 426.368 43.6999 426.408 43.0699 426.448C42.7499 426.468 42.43 426.498 42.1 426.508C41.85 426.528 41.6 426.538 41.34 426.558C40.21 426.618 39.04 426.668 37.85 426.708C37.27 426.728 36.68 426.738 36.09 426.758C35.66 426.768 35.2299 426.778 34.7999 426.788H34.7899C34.2099 426.788 33.6299 426.798 33.0399 426.808H31.5199C31.2899 426.808 31.06 426.808 30.84 426.808C30.48 426.808 30.1199 426.808 29.7699 426.808C28.1499 426.788 26.5599 426.738 25.0199 426.678C24.9599 426.678 24.91 426.678 24.85 426.678C24.67 426.678 24.4799 426.658 24.2999 426.658C23.6999 426.628 23.1099 426.598 22.5399 426.568C21.4899 426.508 20.45 426.438 19.46 426.358C18.86 426.308 18.28 426.258 17.7 426.208C17.23 426.158 16.7699 426.118 16.3199 426.068C16.2299 426.068 16.1399 426.048 16.0499 426.038C6.99993 425.078 0.949951 423.328 0.949951 421.328C0.949951 419.668 5.11996 418.178 11.71 417.168C12.41 417.058 13.1499 416.958 13.8999 416.858C15.0899 416.708 16.3399 416.568 17.6499 416.448C17.8199 416.428 17.9999 416.418 18.1699 416.398C18.5199 416.368 18.8799 416.338 19.2399 416.308C19.2799 416.308 19.3299 416.308 19.3699 416.298C20.4299 416.218 21.5199 416.148 22.6399 416.078C23.1999 416.048 23.77 416.018 24.35 415.988C25.7 415.928 27.0899 415.878 28.4999 415.858C28.9299 415.848 29.3599 415.838 29.7899 415.838C30.3699 415.838 30.9599 415.828 31.5499 415.828C31.7299 415.828 31.91 415.828 32.1 415.828H32.21C32.63 415.828 33.04 415.828 33.45 415.828C34.01 415.828 34.5599 415.838 35.1099 415.848C35.3999 415.848 35.6899 415.858 35.9799 415.868C36.5699 415.878 37.1599 415.898 37.7399 415.918C38.9799 415.958 40.1799 416.018 41.3599 416.078C41.9099 416.108 42.4499 416.138 42.9799 416.178H42.9999C43.8299 416.238 44.6399 416.288 45.4399 416.358C55.9599 417.238 63.2299 419.138 63.2299 421.328L63.22 421.308Z" fill="#99522E"/>
<path d="M17.7 426.188C17.23 426.138 16.7699 426.098 16.3199 426.048C16.2299 426.048 16.1399 426.028 16.0499 426.018C14.4699 423.058 13.03 420.108 11.71 417.158C5.64996 403.588 2.13986 389.718 -0.0201416 372.558C-0.0601416 372.258 -0.090127 371.948 -0.130127 371.638C-0.390127 369.528 -0.630088 367.378 -0.840088 365.158C-1.11009 362.488 -1.35006 359.728 -1.56006 356.888C-2.07006 350.298 -2.45014 343.228 -2.77014 335.548C-2.80014 334.618 -2.84013 333.688 -2.88013 332.738C-2.88013 332.738 -1.21005 331.618 -1.18005 332.068C-1.14005 332.638 -1.09005 333.198 -1.05005 333.758C-0.450049 341.578 0.289922 348.848 1.16992 355.598C1.50992 358.178 1.85987 360.678 2.23987 363.108C3.19987 369.328 4.27986 375.078 5.47986 380.408C7.25986 388.338 9.28992 395.328 11.5399 401.478C13.5899 407.108 15.8199 412.038 18.1899 416.378C20.2999 420.248 22.5399 423.648 24.8699 426.648C24.6899 426.648 24.4999 426.628 24.3199 426.628C23.7199 426.598 23.1299 426.568 22.5599 426.538C21.5099 426.478 20.4699 426.408 19.4799 426.328C18.8799 426.278 18.3 426.228 17.72 426.178L17.7 426.188Z" fill="#4D4F2F"/>
<path d="M25.0201 426.668C24.9601 426.668 24.9101 426.668 24.8501 426.668C24.6701 426.668 24.4801 426.648 24.3001 426.648C23.7001 426.618 23.1101 426.588 22.5401 426.558C21.4901 426.498 20.4501 426.428 19.4601 426.348C18.8601 426.298 18.2801 426.248 17.7001 426.198C17.2301 426.148 16.7701 426.108 16.3201 426.058L16.1501 425.668C15.2601 422.518 14.5101 419.588 13.9001 416.858C12.5501 410.888 11.8301 405.858 11.5201 401.508C10.9901 394.118 11.6401 388.668 12.4501 383.838C12.8301 381.548 13.2501 379.398 13.6001 377.248L14.4401 379.268C14.0801 380.478 13.7401 382.248 13.5501 384.458C12.9001 391.748 13.69 403.808 19.24 416.298C20.78 419.748 22.6801 423.238 25.0201 426.658V426.668Z" fill="#8E8A35"/>
<path d="M34.7999 426.788H34.7899C34.2099 426.788 33.6299 426.798 33.0399 426.808H31.5199C31.2899 426.808 31.0599 426.808 30.8399 426.808C30.0099 423.818 29.2198 420.078 28.4898 415.858C26.7698 405.958 25.3399 393.338 24.2699 381.098C24.0099 378.218 23.7799 375.348 23.5699 372.558C23.5299 372.058 23.4899 371.568 23.4599 371.078C23.1199 366.518 22.8398 362.148 22.6298 358.138C22.4898 355.628 22.3699 353.268 22.2899 351.088C22.2099 349.188 22.1498 347.428 22.1098 345.838C22.0598 343.828 22.0499 342.088 22.0599 340.678H23.0499C23.1999 342.578 23.3598 344.418 23.5098 346.198C23.6598 348.068 23.8199 349.878 23.9599 351.628C24.1499 353.908 24.3399 356.088 24.5199 358.168C24.9599 363.298 25.3598 367.868 25.7498 371.968C27.8598 394.558 29.2999 403.178 32.2099 415.828C32.9699 419.108 33.8299 422.668 34.8199 426.808L34.7999 426.788Z" fill="#4D4F2F"/>
<path d="M11.84 355.178C4.33004 353.338 -5.51996 356.008 -7.02996 364.858C-8.52996 373.708 -2.02007 377.418 -2.02007 377.418C-2.02007 377.418 0.0899897 368.698 2.28999 368.538C4.48999 368.368 0.819975 376.528 1.14997 378.208C1.47997 379.888 2.97994 379.418 4.98994 380.238C6.99994 381.058 18.02 385.728 21.19 390.908C23.86 383.398 25.36 376.878 25.53 376.218C25.7 375.558 23.36 371.618 21.69 370.778C25.86 371.108 28.1999 373.768 28.8699 374.158C29.5399 374.548 30.54 373.188 31.04 367.778C31.54 362.358 31.8 355.058 25.13 352.108C18.39 349.128 15.02 351.008 11.84 355.178Z" fill="#6B6828"/>
<path d="M18.5601 380.248C18.2701 371.968 14.1201 360.548 11.5801 355.298L12.0901 355.048C14.6601 360.338 18.84 371.858 19.13 380.228L18.5601 380.248Z" fill="#8E8A35"/>
<path d="M-0.949951 365.728L-1.42993 365.418C-0.489932 363.988 2.93008 362.058 6.83008 361.438C9.25008 361.048 12.7001 361.038 15.3401 363.148L14.98 363.588C12.5 361.608 9.23004 361.628 6.92004 361.998C3.18004 362.598 -0.0799512 364.398 -0.949951 365.728Z" fill="#8E8A35"/>
<path d="M7.2699 375.548L6.70996 375.448C7.48996 371.098 10.1499 366.138 15.2999 365.288L15.3899 365.848C13.8399 366.098 8.6899 367.558 7.2699 375.538V375.548Z" fill="#8E8A35"/>
<path d="M14.75 361.668L14.25 361.398C16.49 357.268 23.73 357.698 26.74 358.078L26.67 358.648C23.78 358.288 16.83 357.858 14.76 361.678L14.75 361.668Z" fill="#8E8A35"/>
<path d="M24.0801 306.098C20.2601 301.458 10.7 297.118 2.49999 301.478C-5.69001 305.828 -3.62001 325.518 2.49999 332.868C3.86999 334.508 3.46001 333.008 4.14001 330.408C4.82001 327.818 13.1801 311.188 20.5901 318.118C25.8501 323.038 7.90997 332.598 6.97997 336.148C6.04997 339.698 16.4201 345.158 20.5901 345.568C24.7601 345.978 35.91 350.718 38.05 353.808C40.87 348.568 44.01 343.638 48.3 339.558C56.47 331.778 63.6401 320.298 53.7101 307.878C45.7301 297.888 28.5801 298.588 24.0801 306.098Z" fill="#6B6828"/>
<path d="M35.8201 338.798C33.7201 329.198 27.7801 312.298 23.8401 306.248L24.3201 305.938C28.2801 312.028 34.26 329.028 36.38 338.668L35.8201 338.788V338.798Z" fill="#8E8A35"/>
<path d="M27.27 312.938C22.31 308.368 10.8 305.468 6.03003 307.588L5.80005 307.068C10.83 304.838 22.47 307.738 27.65 312.518L27.26 312.938H27.27Z" fill="#8E8A35"/>
<path d="M18.4801 335.018L17.9502 334.808C20.1302 329.288 23.3702 323.358 30.8302 321.158L30.9901 321.708C23.7601 323.828 20.6101 329.628 18.4801 335.018Z" fill="#8E8A35"/>
<path d="M44.6399 337.638C43.9199 336.588 43.22 335.378 42.47 334.108C39.72 329.438 36.6099 324.138 31.1899 322.708L31.34 322.158C36.99 323.648 40.17 329.048 42.97 333.818C43.71 335.078 44.4199 336.278 45.1199 337.318L44.6499 337.638H44.6399Z" fill="#8E8A35"/>
<path d="M48.1501 321.668C47.6701 321.338 47.2002 320.978 46.7002 320.598C43.6102 318.258 39.7702 315.348 28.6902 315.348C28.6202 315.348 28.5402 315.348 28.4702 315.348V314.778C39.9402 314.728 43.8802 317.738 47.0502 320.148C47.5402 320.518 48.0101 320.868 48.4801 321.198L48.1602 321.668H48.1501Z" fill="#8E8A35"/>
<path d="M28.0502 313.748L27.6201 313.378C29.3001 311.418 35.5602 308.128 43.0902 309.018L43.0201 309.588C35.7901 308.738 29.6002 311.928 28.0502 313.748Z" fill="#8E8A35"/>
<path d="M68.9301 340.668C67.2801 336.028 58.9201 334.168 56.5501 339.638C54.1801 345.108 58.5101 356.498 70.6801 359.828C82.8501 363.158 89.3501 360.988 92.9601 364.188C96.5701 367.388 97.8101 369.548 97.8101 369.548C97.8101 369.548 97.6 365.478 99.36 361.528C101.11 357.578 101.05 353.248 99.88 350.648C97.6 345.578 94.2501 342.358 90.6001 337.478C86.2701 331.698 79.15 331.588 75.75 332.518C72.35 333.448 69.1501 334.998 68.9401 340.668H68.9301Z" fill="#6B6828"/>
<path d="M65.17 352.758C64.94 353.198 64.66 353.678 64.36 354.208C64.02 354.808 63.6401 355.458 63.2101 356.188C61.8901 358.478 60.2301 361.408 58.4601 365.068C58.3901 365.218 58.31 365.368 58.24 365.508C57.24 367.588 56.2 369.888 55.17 372.438C55.05 372.738 54.9301 373.048 54.8101 373.358C54.0601 375.258 53.3101 377.298 52.5801 379.488C50.7501 384.958 49.0501 391.308 47.7101 398.628C46.7201 403.998 45.9301 409.888 45.4301 416.348C45.1801 419.538 45 422.868 44.91 426.328C44.31 426.378 43.7001 426.418 43.0701 426.458C42.7501 426.478 42.4301 426.508 42.1001 426.518C42.2501 423.128 42.5401 419.658 42.9701 416.158C43.7201 409.878 44.8901 403.498 46.3401 397.288C47.2201 393.528 48.21 389.818 49.28 386.228C49.74 384.678 50.2201 383.148 50.7101 381.638C51.4301 379.428 52.1801 377.268 52.9501 375.188C53.4501 373.828 53.96 372.498 54.48 371.208C55.18 369.478 55.8901 367.798 56.6001 366.198C56.9901 365.318 57.39 364.468 57.79 363.638C59.2 360.668 60.6401 357.988 62.0701 355.668C62.1301 355.578 62.18 355.488 62.24 355.408C62.99 354.208 63.7301 353.108 64.4601 352.118L65.17 352.768V352.758Z" fill="#4D4F2F"/>
<path d="M-8.72003 270.118C-10.9 262.708 -15.26 251.798 -29.22 253.108C-43.18 254.418 -51.9 271.648 -52.77 275.568C-53.64 279.498 -41.65 265.758 -28.35 271.858C-15.05 277.968 -41.86 280.448 -46.01 281.018C-52.17 281.858 -58 287.338 -58 296.718C-58 306.098 -56.91 307.618 -56.91 307.618C-56.91 307.618 -38.16 282.538 -27.63 289.178C-22.65 292.318 -39.89 299.658 -45.78 303.478C-53.19 308.278 -52.9 317.898 -46.22 326.808C-44.91 328.548 -43.82 320.048 -37.5 312.638C-31.18 305.228 -25.72 298.468 -21.58 300.648C-17.44 302.828 -29.43 309.368 -33.36 315.038C-37.29 320.708 -39.68 327.028 -39.68 328.778C-39.68 330.528 -33.14 336.848 -31.61 338.378C-30.08 339.908 -28.78 328.998 -25.72 323.768C-22.67 318.538 -18.3101 313.518 -15.2501 317.658C-12.1901 321.798 -19.61 328.128 -19.61 333.358C-19.61 338.588 -15.25 341.208 -12.85 343.608C-10.45 346.008 -8.71002 347.318 -8.71002 347.318C-8.71002 347.318 -9.58 342.958 -5.44 338.378C-1.3 333.798 3.94003 329.438 4.59003 325.298C5.24003 321.158 0.00992584 320.498 -2.39008 316.798C-4.79008 313.088 -1.94999 310.908 1.32001 312.438C4.59001 313.968 12.0099 323.558 12.8799 326.828C13.7499 330.098 15.71 323.778 16.81 319.848C17.9 315.918 14.6299 312.868 10.4899 311.348C6.34993 309.818 -1.94007 304.048 1.10992 300.178C4.15992 296.298 14.18 305.898 17.02 311.128C19.86 316.358 20.95 318.328 20.95 318.328C20.95 318.328 24.88 313.308 24.22 307.428C23.57 301.538 17.6799 297.178 13.7499 295.218C9.81994 293.258 5.90003 291.288 6.34003 288.898C6.78003 286.498 12.01 287.588 17.03 291.728C22.05 295.868 26.6199 300.018 28.3699 302.418C30.1099 304.818 31.86 298.708 33.17 292.388C34.48 286.068 34.48 282.798 29.9 282.358C25.32 281.918 15.73 283.228 10.93 280.398C6.12999 277.568 8.74999 273.198 10.93 273.198C13.11 273.198 22.92 275.378 26.41 277.558C29.9 279.738 30.5499 273.628 27.4999 268.398C24.4499 263.168 21.43 256.628 12.67 255.748C3.23998 254.808 -7.17001 261.858 -8.70001 270.138L-8.72003 270.118Z" fill="#8E8A35"/>
<path d="M-8.28992 277.178L-9.26001 276.588C-2.70001 265.778 10.34 263.818 19.51 265.418L19.3101 266.538C10.4901 264.998 -2.02992 266.858 -8.28992 277.178Z" fill="#A5A25E"/>
<path d="M24.83 291.128C21.38 289.458 14.3199 287.518 7.48987 285.638C0.119868 283.608 -6.84005 281.698 -9.05005 280.188L-8.41003 279.248C-6.36003 280.648 0.829917 282.628 7.78992 284.548C14.6699 286.438 21.7799 288.398 25.3199 290.118L24.8199 291.148L24.83 291.128Z" fill="#A5A25E"/>
<path d="M19.0001 305.408C14.4101 300.618 8.33013 298.228 2.45013 295.918L1.97015 295.728C-3.96985 293.398 -10.7699 288.268 -9.93989 285.828L-8.85993 286.198C-9.24993 287.348 -4.17993 292.088 2.39007 294.668L2.86004 294.858C8.86004 297.208 15.0601 299.648 19.8201 304.618L19.0001 305.408Z" fill="#A5A25E"/>
<path d="M4.70007 312.258C-0.579927 309.148 -9.66993 303.118 -11.1799 297.748L-10.08 297.438C-8.61996 302.608 1.15003 308.838 5.28003 311.268L4.70007 312.248V312.258Z" fill="#A5A25E"/>
<path d="M75.38 279.718C73.26 271.428 67.62 264.158 60.73 264.238C53.85 264.308 44.77 267.128 41.49 279.718C41.14 281.078 51.7301 275.768 60.3001 276.888C67.0501 277.768 65.4501 280.628 62.9701 281.008C60.1801 281.438 50.8401 280.018 46.4301 281.078C42.0201 282.138 38.5401 287.038 38.1401 293.078C37.8201 297.848 38.49 297.838 38.49 297.838C38.49 297.838 45.52 291.368 50.49 289.368C55.66 287.288 68.8401 284.248 70.0801 288.128C71.3201 292.008 57.7901 291.878 51.4501 294.788C44.2801 298.078 39.3801 303.478 40.0801 313.008C40.7901 322.538 41.4901 321.298 42.0201 321.478C42.5501 321.658 56.79 305.828 62.24 302.888C67.3 300.158 73.78 298.568 75.37 301.468C76.96 304.368 68.3101 308.368 64.0801 310.898C57.7401 314.668 46.4301 325.018 45.9001 327.308C45.3701 329.598 48.55 336.308 49.61 337.188C50.67 338.068 52.9401 332.788 55.5801 329.628C58.1101 326.588 71 315.708 73.26 318.748C76.5 323.128 63.6801 329.708 60.2001 333.658C57.5101 336.708 55.7901 342.308 58.7901 344.598C61.7901 346.888 69.38 350.418 70.61 352.188L71.8501 353.948C71.8501 353.948 75.03 353.238 78.38 351.298C81.73 349.358 82.79 344.768 81.73 339.478C80.67 334.188 80.4 328.718 82.12 328.888C83.84 329.068 85.2601 333.288 85.9601 338.588C86.6701 343.888 85.25 349.538 85.25 349.538C85.25 349.538 90.9001 346.188 91.7801 342.478C92.6601 338.768 94.2501 329.418 89.6601 322.538C85.0701 315.658 84.01 311.598 86.13 310.888C88.25 310.178 94.6001 316.888 95.3101 325.888C96.0201 334.888 95.3101 340.538 95.3101 340.538C95.3101 340.538 100.78 335.778 103.07 329.778C105.36 323.778 104.13 315.308 101.31 312.488C98.4901 309.668 88.7801 304.228 88.7801 301.478C88.7801 298.728 93.1901 298.908 96.9001 302.608C100.61 306.318 106.43 313.378 107.66 318.758C108.9 324.138 107.84 323.788 108.9 324.138C109.96 324.488 113.14 317.788 111.37 310.198C109.61 302.608 110.66 296.428 104.13 294.318C97.6 292.198 92.3101 290.438 91.7801 287.968C91.2501 285.498 96.02 284.648 98.13 290.638C98.13 290.638 100.07 287.498 98.8401 284.208C97.6001 280.918 89.84 271.498 75.37 279.738L75.38 279.718Z" fill="#8E8A35"/>
<path d="M74.77 349.868L73.77 349.318C75.21 346.688 75.5801 341.348 75.9701 335.698C76.3201 330.598 76.69 325.328 77.87 321.378C80.09 313.978 80.35 304.698 78.53 297.748C78.17 296.378 77.8001 294.998 77.4301 293.628C76.0601 288.558 74.77 283.768 74.42 280.598L75.55 280.468C75.89 283.548 77.17 288.298 78.53 293.328C78.9 294.708 79.27 296.088 79.63 297.458C81.5 304.598 81.2401 314.108 78.9601 321.698C77.8101 325.528 77.4501 330.738 77.1001 335.778C76.7001 341.558 76.32 347.028 74.76 349.868H74.77Z" fill="#A5A25E"/>
<path d="M75.09 281.928C74.91 281.928 74.74 281.848 74.63 281.698C65.88 269.728 54.29 272.428 53 272.778C52.7 272.858 52.38 272.678 52.3 272.378C52.22 272.078 52.4 271.758 52.7 271.678C54.07 271.308 66.35 268.438 75.55 281.028C75.74 281.278 75.68 281.638 75.43 281.828C75.33 281.898 75.2101 281.938 75.09 281.938V281.928Z" fill="#A5A25E"/>
<path d="M43.4099 289.608L42.6899 288.718C47.2199 285.058 52.67 281.778 61.7 282.618C70.7 283.448 76.5299 287.108 76.7699 287.258L76.1599 288.218C76.0999 288.178 70.31 284.558 61.6 283.748C52.98 282.948 47.7599 286.088 43.4199 289.598L43.4099 289.608Z" fill="#A5A25E"/>
<path d="M45.42 310.778L44.3501 310.388C46.0801 305.668 53.2 297.508 63 294.968C72.27 292.568 79.11 296.948 79.39 297.128L78.77 298.078C78.7 298.038 72.05 293.798 63.29 296.068C54.29 298.398 47.13 306.108 45.42 310.778Z" fill="#A5A25E"/>
<path d="M51.01 328.418L50.04 327.828C51.47 325.468 55.64 320.398 61.27 316.108C65.97 312.528 73.0901 308.448 80.3501 309.368L80.2101 310.498C67.2601 308.878 53.7 323.998 51.02 328.418H51.01Z" fill="#A5A25E"/>
<path d="M79.35 283.218C77.25 283.218 75.2899 282.938 75.1699 282.918L75.34 281.788C75.34 281.788 79.7499 282.428 82.2599 281.798C82.6899 281.688 83.13 281.568 83.58 281.448C85.96 280.798 88.6499 280.068 91.0299 280.808L90.6899 281.898C88.6299 281.248 86.0999 281.938 83.8799 282.548C83.4199 282.678 82.9699 282.798 82.5299 282.908C81.5899 283.138 80.45 283.218 79.35 283.218Z" fill="#A5A25E"/>
<path d="M106.45 306.998C106.45 306.998 104.62 303.008 100.31 299.568C98.8901 298.438 94.51 296.108 87.3 292.668C83.66 290.928 77.3801 291.188 77.3101 291.188L77.26 290.048C77.53 290.038 83.89 289.768 87.79 291.638C95.18 295.178 99.51 297.478 101.01 298.678C105.55 302.298 107.41 306.358 107.48 306.528L106.44 306.998H106.45Z" fill="#A5A25E"/>
<path d="M97.2802 320.958C96.4802 315.698 86.8902 304.618 79.6602 302.008L80.0502 300.938C87.7402 303.718 97.5502 315.138 98.4102 320.788L97.2802 320.958Z" fill="#A5A25E"/>
<path d="M88.2799 337.488C88.1499 330.598 84.8499 322.328 79.8799 316.428L80.7499 315.698C85.8799 321.788 89.2799 330.328 89.4199 337.468L88.2799 337.488Z" fill="#A5A25E"/>
<path d="M-18.61 353.808C-19.31 349.948 -23.6099 344.498 -30.8099 343.708C-38.0099 342.918 -45.1199 348.798 -45.5599 349.858C-45.9999 350.908 -40.73 348.628 -35.46 349.418C-30.19 350.208 -27.3 352.318 -27.65 353.808C-28 355.298 -34.2299 353.198 -38.1799 352.048C-42.1299 350.908 -47.84 351.498 -50.73 354.318C-53.63 357.138 -54.24 359.858 -53.98 360.038C-53.72 360.218 -48.0999 355.388 -41.6899 355.038C-35.2799 354.688 -31.07 355.478 -30.8 357.668C-30.54 359.858 -35.89 358.458 -40.54 358.638C-45.19 358.818 -52.57 359.688 -55.29 364.348C-58.01 368.998 -57.2199 371.898 -56.8699 371.898C-56.5199 371.898 -51.1599 367.248 -46.5099 365.758C-41.8599 364.268 -31.59 360.928 -29.66 364.708C-27.73 368.478 -34.0499 369.538 -38.4399 370.058C-42.8299 370.588 -51.3399 373.748 -53.8899 376.818C-56.4399 379.888 -53.9799 384.278 -53.6299 384.548C-53.2799 384.808 -51.87 383.498 -49.86 381.568C-47.85 379.638 -41.34 374.278 -38.36 376.218C-35.38 378.158 -45.56 384.468 -47.4 385.958C-49.24 387.448 -49.3299 389.028 -48.1899 390.438C-47.0499 391.848 -44.77 395.088 -44.42 396.318C-44.42 396.318 -39.3299 396.228 -36.4299 395.968C-33.5299 395.708 -32.3 394.478 -32.48 390.698C-32.66 386.928 -31.7799 381.478 -29.0599 381.828C-26.3399 382.178 -27.83 388.058 -28.97 390.698C-30.11 393.328 -30.99 396.318 -30.99 396.318C-30.99 396.318 -28.9699 396.228 -26.0699 394.998C-23.1699 393.768 -20.89 392.888 -21.59 388.938C-22.29 384.988 -22.12 384.548 -23.35 379.988C-24.58 375.428 -25.37 371.388 -22.65 371.298C-19.93 371.208 -19.5799 374.018 -20.1899 378.408C-20.7999 382.798 -19.8799 386.308 -19.3699 387.978C-18.8699 389.648 -18.87 391.228 -18.96 391.748C-19.05 392.268 -16.0599 390.518 -13.7799 388.498C-11.4999 386.478 -8.94996 384.728 -10.09 380.688C-11.23 376.648 -13.7799 372.348 -17.8199 368.658C-21.8599 364.968 -18.0799 364.098 -16.6799 364.968C-15.2799 365.848 -10.8499 367.948 -9.80993 372.958C-8.77993 377.958 -8.77992 381.648 -8.41992 382.528C-8.06992 383.408 -6.66 382.528 -5 381.298C-3.33 380.068 -1.13991 378.398 -1.65991 375.148C-2.18991 371.898 -12.3699 365.138 -11.9299 363.468C-11.4899 361.798 -5.25999 363.998 -3.23999 367.508C-1.21999 371.018 -0.959927 372.068 -0.429928 372.508C0.100071 372.948 2.29001 371.458 1.76001 368.468C1.23001 365.488 -6.31994 361.528 -8.68994 360.658C-11.0599 359.778 -9.83001 357.588 -8.51001 358.108C-7.19001 358.638 -3.06994 362.498 -3.06994 362.498C-3.06994 362.498 -1.92996 359.598 -4.20996 357.228C-6.48996 354.858 -10.44 351.878 -18.61 353.808Z" fill="#8E8A35"/>
<path d="M55.5501 358.938C56.8101 354.748 62.2601 349.248 70.3301 349.268C78.4101 349.288 85.56 356.698 85.91 357.918C86.27 359.138 80.71 355.958 74.77 356.178C68.83 356.398 65.3601 358.368 65.5601 360.068C65.7601 361.768 72.9401 360.208 77.4601 359.438C81.9801 358.668 88.2301 360.028 91.0901 363.518C93.9501 367.008 94.29 370.098 93.98 370.258C93.67 370.418 88.04 364.368 80.98 363.178C73.92 361.988 69.1501 362.338 68.5801 364.738C68.0101 367.138 74.13 366.248 79.26 367.018C84.4 367.788 92.46 369.688 94.9 375.178C97.34 380.678 96.1001 383.788 95.7101 383.748C95.3201 383.708 89.96 377.878 84.99 375.648C80.02 373.418 69.0501 368.438 66.4401 372.378C63.8301 376.318 70.7 378.278 75.5 379.408C80.3 380.538 89.35 385.098 91.79 388.828C94.23 392.548 90.96 397.108 90.54 397.358C90.12 397.608 88.72 395.968 86.73 393.578C84.73 391.188 78.2 384.438 74.65 386.208C71.1 387.978 81.6001 396.248 83.4601 398.138C85.3201 400.018 85.22 401.788 83.78 403.198C82.34 404.608 79.41 407.928 78.86 409.248C78.86 409.248 73.2301 408.518 70.0501 407.868C66.8701 407.218 65.6601 405.698 66.3301 401.538C66.9901 397.378 66.7 391.228 63.64 391.278C60.58 391.328 61.5001 398.038 62.4401 401.098C63.3801 404.158 63.98 407.578 63.98 407.578C63.98 407.578 61.7501 407.228 58.6901 405.508C55.6301 403.788 53.21 402.528 54.48 398.238C55.75 393.948 55.61 393.438 57.54 388.528C59.47 383.618 60.8501 379.238 57.8401 378.808C54.8301 378.378 54.09 381.438 54.23 386.388C54.36 391.328 52.9 395.108 52.13 396.898C51.36 398.688 51.1701 400.438 51.2001 401.028C51.2301 401.618 48.14 399.308 45.86 396.778C43.58 394.258 40.98 391.988 42.75 387.658C44.52 383.328 47.8801 378.868 52.8101 375.288C57.7501 371.708 53.67 370.258 52 371.058C50.33 371.858 45.16 373.638 43.39 379.058C41.62 384.478 41.16 388.568 40.66 389.488C40.16 390.408 38.71 389.268 37.02 387.698C35.32 386.128 33.1001 384.008 34.0901 380.468C35.0801 376.928 47.2101 370.708 46.9301 368.808C46.6501 366.908 39.47 368.558 36.79 372.198C34.11 375.838 33.6901 376.978 33.0501 377.398C32.4101 377.818 30.16 375.888 31.12 372.648C32.08 369.408 40.94 365.968 43.67 365.288C46.41 364.608 45.32 362.028 43.79 362.448C42.26 362.868 37.2101 366.638 37.2101 366.638C37.2101 366.638 36.31 363.288 39.13 360.938C41.96 358.598 46.71 355.778 55.52 358.938H55.5501Z" fill="#8E8A35"/>
<path d="M76.75 403.738C75.43 402.318 73.56 398.358 71.92 394.868C71.2 393.338 70.52 391.898 70.01 390.948C69.66 390.298 69.1701 389.408 68.5901 388.368C66.4401 384.498 63.1801 378.658 62.0601 375.388C60.6301 371.248 57.82 364.738 55.05 359.198L56.0701 358.688C58.8601 364.268 61.7 370.838 63.14 375.018C64.23 378.198 67.4601 383.988 69.5901 387.818C70.1701 388.858 70.67 389.758 71.02 390.408C71.54 391.388 72.2301 392.838 72.9601 394.388C74.4901 397.638 76.3901 401.678 77.5901 402.968L76.76 403.748L76.75 403.738Z" fill="#A5A25E"/>
<path d="M57.3599 361.958L56.3799 361.378C62.2399 351.538 70.54 351.448 74.96 352.278L74.7499 353.398C69.7099 352.458 62.5899 353.178 57.3599 361.958Z" fill="#A5A25E"/>
<path d="M90.4102 375.708C89.9002 375.448 89.3901 375.168 88.8601 374.888C84.2501 372.458 79.0302 369.708 73.0402 368.858C66.4302 367.918 60.2602 369.298 60.2002 369.318L59.9502 368.208C60.2102 368.148 66.3802 366.768 73.2002 367.738C79.3802 368.608 84.9301 371.538 89.3901 373.888C89.9201 374.168 90.4302 374.438 90.9402 374.698L90.4102 375.708Z" fill="#A5A25E"/>
<path d="M88.39 391.578C86.08 388.038 80.71 384.568 78.17 383.828C77.38 383.598 76.05 383.338 74.52 383.028C70.67 382.258 65.8701 381.308 64.0701 379.868L64.78 378.978C66.36 380.238 71.21 381.208 74.74 381.908C76.3 382.218 77.64 382.488 78.48 382.728C81.25 383.528 86.8501 387.128 89.3301 390.948L88.37 391.568L88.39 391.578Z" fill="#A5A25E"/>
<path d="M58.1101 402.088C58.0901 401.508 58.0601 400.948 58.0301 400.408C57.8301 396.788 57.6701 393.658 59.5001 390.038C61.5001 386.088 64.1902 379.868 64.2102 379.808L65.2601 380.258C65.2301 380.318 62.5301 386.568 60.5201 390.548C58.8301 393.898 58.9801 396.748 59.1701 400.348C59.2001 400.898 59.2301 401.458 59.2501 402.048L58.1101 402.098V402.088Z" fill="#A5A25E"/>
<path d="M48.55 392.648L47.54 392.128C48.19 390.868 48.3901 389.078 48.5801 387.348C48.7901 385.508 49 383.598 49.75 382.118C51.18 379.258 60.48 371.468 60.87 371.138L61.6001 372.008C58.3201 374.758 51.83 380.508 50.77 382.628C50.12 383.928 49.9101 385.728 49.7201 387.478C49.5101 389.308 49.3001 391.208 48.5601 392.648H48.55Z" fill="#A5A25E"/>
<path d="M38.5701 383.448L37.48 383.118C38.82 378.708 47.34 370.008 51.67 367.868C56.03 365.718 58.3 364.878 58.39 364.838L58.78 365.908C58.78 365.908 56.46 366.768 52.17 368.888C47.73 371.078 39.7301 379.648 38.5701 383.448Z" fill="#A5A25E"/>
<g style="mix-blend-mode:multiply" opacity="0.42">
<path d="M139.489 528.245C180.549 524.781 294.081 518.578 321.869 519.023C356.066 519.578 380.348 520.619 398.134 525.286C415.92 529.953 448.828 540.792 313.429 545.398C178.029 550.004 108.147 543.408 99.2062 541.468C81.0737 537.539 105.142 531.134 139.489 528.235V528.245Z" fill="#B7A89E"/>
</g>
<path d="M236.13 530.199C236.14 531.729 234.72 533.229 232.26 534.029C228.02 535.419 209.77 535.459 206.43 534.029C203.09 532.599 196.15 530.839 196.15 530.839L195.12 531.869C195.12 531.869 188.05 531.099 186.13 531.099C184.21 531.099 181.89 531.869 181.51 530.199C181.28 529.189 181.18 527.249 181.23 525.749C181.26 524.769 181.35 523.979 181.51 523.779C181.89 523.269 183.03 514.809 183.03 514.809L205.03 510.149C206.96 511.949 216.34 520.819 218.91 522.359C221.48 523.899 229.7 524.929 233.69 527.049C235.37 527.939 236.14 529.079 236.14 530.189L236.13 530.199Z" fill="#3F3A33"/>
<path d="M236.13 530.199C236.14 531.729 234.72 533.228 232.26 534.028C228.02 535.418 209.77 535.458 206.43 534.028C203.09 532.598 196.15 530.839 196.15 530.839L195.12 531.869C195.12 531.869 190.35 532.038 188.43 532.038C186.51 532.038 181.89 531.869 181.51 530.189C181.28 529.179 181.18 527.239 181.23 525.739C184.44 525.419 189.29 525.699 192.43 526.419C196.54 527.359 203.1 530.448 209.26 531.728C215.43 533.009 232.4 532.499 236.12 530.189L236.13 530.199Z" fill="#1E1C19"/>
<path d="M224.4 526.969C222.34 526.969 220.1 526.879 218.2 526.589C215.67 526.209 211.84 524.669 208.76 523.429C206.79 522.639 205.09 521.959 204.31 521.809C204.11 521.769 203.98 521.579 204.02 521.389C204.06 521.189 204.24 521.059 204.44 521.099C205.29 521.259 206.94 521.919 209.03 522.759C212.07 523.979 215.86 525.499 218.31 525.869C222.3 526.469 227.84 526.179 229.92 526.069H230.05C230.27 526.039 230.42 526.209 230.43 526.409C230.44 526.609 230.29 526.779 230.09 526.789H229.96C228.84 526.859 226.73 526.969 224.4 526.969Z" fill="black"/>
<path d="M204.38 516.789C204.16 516.789 203.95 516.689 203.81 516.509C203.56 516.189 203.62 515.739 203.94 515.489C205.14 514.559 208.22 512.979 208.35 512.909C208.71 512.729 209.14 512.869 209.33 513.219C209.51 513.579 209.37 514.009 209.02 514.199C208.99 514.219 205.93 515.789 204.84 516.629C204.71 516.729 204.55 516.779 204.4 516.779L204.38 516.789Z" fill="black"/>
<path d="M206.77 518.989C206.55 518.989 206.34 518.889 206.2 518.709C205.95 518.389 206.01 517.939 206.33 517.689C207.53 516.759 210.61 515.179 210.74 515.109C211.1 514.929 211.53 515.069 211.72 515.419C211.9 515.779 211.76 516.209 211.41 516.399C211.38 516.419 208.32 517.989 207.23 518.829C207.1 518.929 206.94 518.979 206.79 518.979L206.77 518.989Z" fill="black"/>
<path d="M209.09 521.289C208.87 521.289 208.66 521.189 208.52 521.009C208.27 520.689 208.33 520.239 208.65 519.989C209.85 519.059 212.93 517.479 213.06 517.409C213.42 517.229 213.85 517.369 214.04 517.719C214.22 518.079 214.08 518.509 213.73 518.699C213.7 518.719 210.64 520.289 209.55 521.129C209.42 521.229 209.26 521.279 209.11 521.279L209.09 521.289Z" fill="black"/>
<path d="M165.55 540.519C164.02 540.659 148.48 541.349 146.96 540.519C145.43 539.679 139.75 539.129 139.61 538.709C139.55 538.509 139.19 536.009 139.01 533.139C138.82 530.079 138.82 526.619 139.61 525.109C141.14 522.189 140.86 517.059 140.86 513.449L159.7 514.079C159.7 514.079 166.37 528.809 166.25 534.099V534.119C168.47 535.929 167.08 540.359 165.55 540.499V540.519Z" fill="#3F3A33"/>
<path d="M165.55 540.519C164.02 540.659 148.48 541.349 146.96 540.519C145.43 539.679 139.75 539.129 139.61 538.709C139.55 538.509 139.19 536.009 139.01 533.139C141.54 535.009 146 537.019 147.11 537.459C148.5 538.019 161.54 537.459 163.62 537.459C165.7 537.459 166.34 535.469 166.26 534.129C168.48 535.939 167.09 540.369 165.56 540.509L165.55 540.519Z" fill="#1E1C19"/>
<path d="M157.62 534.329C154.92 534.329 151.72 533.939 148.64 532.829C142.28 530.519 142.13 524.469 142.57 522.539C142.62 522.339 142.82 522.209 143.03 522.259C143.23 522.309 143.36 522.508 143.31 522.718C142.9 524.488 143.05 529.999 148.9 532.129C155.03 534.359 161.61 533.529 163.33 532.809C163.52 532.729 163.75 532.809 163.83 533.009C163.91 533.199 163.83 533.429 163.63 533.509C162.59 533.949 160.37 534.339 157.62 534.339V534.329Z" fill="black"/>
<path d="M159.7 523.939C159.7 523.939 159.6 523.939 159.55 523.929C158.22 523.669 152.98 523.669 151.54 523.929C151.12 524.009 150.73 523.729 150.66 523.319C150.58 522.909 150.86 522.509 151.27 522.439C152.89 522.139 158.34 522.149 159.85 522.439C160.26 522.519 160.53 522.919 160.45 523.329C160.38 523.689 160.06 523.939 159.71 523.939H159.7Z" fill="black"/>
<path d="M159.7 520.829C159.7 520.829 159.6 520.829 159.55 520.819C158.22 520.559 152.98 520.559 151.54 520.819C151.12 520.889 150.73 520.619 150.66 520.209C150.59 519.799 150.86 519.399 151.27 519.329C152.89 519.039 158.34 519.039 159.85 519.329C160.26 519.409 160.53 519.809 160.45 520.219C160.38 520.579 160.06 520.829 159.71 520.829H159.7Z" fill="black"/>
<path d="M158.73 518.179C158.73 518.179 158.63 518.179 158.58 518.169C157.25 517.909 152.01 517.909 150.57 518.169C150.16 518.249 149.76 517.969 149.69 517.559C149.62 517.149 149.89 516.749 150.3 516.679C151.92 516.389 157.37 516.389 158.88 516.679C159.29 516.759 159.56 517.159 159.48 517.569C159.41 517.929 159.09 518.179 158.74 518.179H158.73Z" fill="black"/>
<path d="M120.05 258.928C120.05 258.928 125.81 353.949 127.65 363.319C129.49 372.689 129.82 386.079 127.65 395.449C125.48 404.819 129.63 480.769 139 518.189L163.85 515.038C163.85 515.038 158.95 418.398 160.62 407.928C162.29 397.458 168.31 380.118 169.65 369.038C170.99 357.958 178.64 324.499 178.64 324.499C178.64 324.499 201.77 384.599 202.44 391.689C203.11 398.789 183.23 499.858 183.02 514.798C183.02 514.798 197.63 513.569 208.34 512.899C212.36 497.509 233.41 419.928 239.01 405.668C244.61 391.418 243.45 374.599 239.01 353.559C234.57 332.519 218.51 256.729 218.51 256.729L120.05 258.918V258.928Z" fill="#681C12"/>
<path d="M181.37 300.828L178.103 324.433L179.212 324.587L182.48 300.982L181.37 300.828Z" fill="#302026"/>
<path d="M133.34 88.5186C124.73 93.7086 119.72 98.2986 110.95 105.819C102.18 113.339 93 126.699 93 143.809C93 160.919 95.51 178.879 95.51 178.879C95.51 178.879 120.17 178.459 125.79 175.959L124.13 201.009L119.3 230.249L120.14 262.349C120.14 262.349 143.14 269.059 161.91 267.389C180.68 265.719 222.43 262.759 222.43 262.759L217 212.699L188.61 92.8786L172.98 85.5786L133.34 88.5286V88.5186Z" fill="#709AC3"/>
<path d="M155.19 97.3986C139.83 98.8786 133.34 88.5186 133.34 88.5186C133.34 88.5186 136.39 84.9886 136.87 83.2186C137.16 82.1386 136.44 76.5585 135.83 72.3885C135.71 71.5485 135.59 70.7586 135.48 70.0786C135.26 68.6186 135.1 67.6586 135.1 67.6586L165.75 67.0186C165.75 67.0186 165.75 69.0885 165.82 71.6685C165.88 74.0585 166 76.8785 166.23 78.8885C166.71 83.0585 168.8 82.9986 172.97 85.5686C172.97 85.5686 168.34 96.1286 155.18 97.3986H155.19Z" fill="#EFAA7B"/>
<g style="mix-blend-mode:multiply">
<path d="M165.83 71.6586L166.17 78.1986C166.17 78.1986 153.76 89.3786 135.83 72.3786C135.71 71.5386 135.59 70.7486 135.48 70.0686L165.82 71.6586H165.83Z" fill="#C68B63"/>
</g>
<path d="M139.57 15.0386C151.65 13.4386 168.57 6.45858 171.84 39.9586C175.11 73.4586 162.04 77.5386 158.36 78.7686C154.68 79.9986 131.81 78.3586 127.32 57.5286C122.83 36.6986 123.83 17.1286 139.57 15.0486V15.0386Z" fill="#EFAA7B"/>
<path d="M142.25 45.2285C142.59 46.9985 141.91 48.6085 140.73 48.8385C139.55 49.0685 138.32 47.8185 137.99 46.0485C137.66 44.2785 138.33 42.6685 139.51 42.4385C140.69 42.2085 141.92 43.4585 142.25 45.2285Z" fill="#1C2F3F"/>
<path d="M163.46 42.6785C163.8 44.4485 163.12 46.0585 161.94 46.2885C160.76 46.5185 159.53 45.2685 159.2 43.4985C158.86 41.7285 159.54 40.1185 160.72 39.8885C161.9 39.6585 163.13 40.9085 163.46 42.6785Z" fill="#1C2F3F"/>
<path d="M150.89 54.2786C150.71 54.2786 150.56 54.1386 150.54 53.9586C150.52 53.7686 150.67 53.5986 150.86 53.5786L152.86 53.4086C154.62 53.2586 156.62 52.6986 156.93 52.0086C156.96 51.9486 157.03 51.7786 156.79 51.4686C155.57 49.8986 152.24 45.3986 151.56 43.5186C151.49 43.3386 151.59 43.1386 151.77 43.0686C151.95 42.9986 152.15 43.0986 152.22 43.2786C152.87 45.0686 156.22 49.5886 157.35 51.0386C157.76 51.5586 157.7 52.0086 157.57 52.2886C156.93 53.7586 153.09 54.0886 152.92 54.1086L150.92 54.2786C150.92 54.2786 150.9 54.2786 150.89 54.2786Z" fill="#513540"/>
<path d="M145.88 61.7786C152.06 67.4586 160.25 64.7886 162.58 57.9386C156.76 60.4386 152.39 61.3986 145.88 61.7786Z" fill="white"/>
<path d="M120.32 48.6686C116.31 40.5686 111.01 20.3586 123.27 10.1686C135.53 -0.0214348 156.64 -6.03143 162.59 9.32857C171.61 6.15857 177.12 22.3586 172.36 38.8986C172.36 38.8986 171.3 34.0386 168.79 29.5286C166.28 25.0186 163.13 16.7186 163.13 16.7186C156.07 22.6986 144.04 19.3586 138.03 21.1886C132.02 23.0286 126.89 27.4986 126.89 33.8486C126.89 40.1986 127.81 50.8886 127.81 50.8886L120.33 48.6686H120.32Z" fill="#1C2F3F"/>
<path d="M135.67 42.0486C135.36 42.0486 135.05 41.9386 134.8 41.7086C134.28 41.2286 134.25 40.4186 134.73 39.9086C136.68 37.7886 141.24 37.4486 144.01 38.5586C144.66 38.8186 144.98 39.5586 144.72 40.2186C144.46 40.8686 143.72 41.1886 143.06 40.9286C141.21 40.1886 137.75 40.4086 136.61 41.6486C136.36 41.9186 136.02 42.0586 135.67 42.0586V42.0486Z" fill="#1C2F3F"/>
<path d="M156.77 37.8386C156.28 37.8386 155.81 37.5586 155.6 37.0786C155.31 36.4386 155.6 35.6786 156.25 35.3886L156.31 35.3586C158.04 34.5886 161.64 32.9886 164.49 34.4086C165.12 34.7286 165.38 35.4886 165.06 36.1186C164.74 36.7486 163.98 37.0086 163.35 36.6886C161.58 35.8086 158.62 37.1286 157.35 37.6886L157.29 37.7186C157.12 37.7886 156.95 37.8286 156.77 37.8286V37.8386Z" fill="#1C2F3F"/>
<path d="M195.3 154.899L132.83 166.439L124.13 104.119L188.61 92.8685L195.3 154.899Z" fill="#E8A364"/>
<path d="M205.34 249.389L135.11 256.739L124.13 168.559L132.83 166.439L195.3 154.899L195.55 157.179L195.98 161.289L205.34 249.389Z" fill="#CC8E5C"/>
<path d="M299.61 235.488L205.34 249.388L195.98 161.289L195.55 157.178L195.3 154.898L279.12 145.358L292.02 144.458L299.61 235.488Z" fill="#F7B977"/>
<path d="M279.12 145.359L195.3 154.899L188.61 92.8686L273.72 86.5886L279.12 145.359Z" fill="#F9C198"/>
<path d="M155.33 238.009C155.33 238.009 113.04 226.989 106.36 222.969C99.68 218.949 100.51 214.779 98.84 205.589C97.17 196.399 95.5 178.869 95.5 178.869L125.78 175.949L127.64 203.509C127.64 203.509 134.35 210.189 139.34 213.529C144.33 216.869 158.46 223.129 158.46 223.129L155.31 238.009H155.33Z" fill="#EFAA7B"/>
<path d="M127.42 203.749C123 199.599 112.26 198.009 112.15 197.989L112.25 197.329C112.7 197.389 123.31 198.969 127.88 203.259L127.42 203.749Z" fill="#513540"/>
<path d="M155.33 238.009C159.2 239.299 165.02 243.299 167.75 246.569C170.48 249.839 173.75 254.779 176.11 255.949C178.47 257.119 187.2 258.689 188.47 258.259C189.74 257.839 195.56 254.709 195.56 254.709C195.56 254.709 203.01 254.419 204.65 252.769C206.29 251.119 205.01 248.759 201.74 249.489C198.47 250.219 193.38 249.239 191.56 248.179C189.74 247.119 180.47 234.579 179.2 233.129C185.38 235.669 187.2 235.669 189.56 235.489C191.92 235.309 193.56 233.129 191.2 231.859C188.84 230.589 183.86 227.319 180.35 224.769C176.84 222.229 171.75 220.949 168.12 222.039C164.49 223.129 162.12 224.039 158.49 223.129L155.34 238.009H155.33Z" fill="#EFAA7B"/>
<path d="M195.53 255.039C188.67 254.699 185.44 251.099 183.07 248.469C182.58 247.929 182.12 247.409 181.68 246.999L182.14 246.509C182.59 246.939 183.06 247.459 183.56 248.019C185.84 250.559 188.97 254.049 195.55 254.369L195.52 255.039H195.53Z" fill="#513540"/>
<path d="M189.6 258.039C186.69 258.039 180.39 252.509 180.12 252.269L180.56 251.769C182.39 253.389 187.61 257.539 189.72 257.369L189.78 258.039C189.72 258.039 189.67 258.039 189.61 258.039H189.6Z" fill="#513540"/>
<path d="M184.25 258.298C181.43 257.958 178.53 255.059 178.41 254.939L178.89 254.469C178.89 254.469 181.75 257.328 184.33 257.638L184.25 258.298Z" fill="#513540"/>
<path d="M126.99 49.2886C128.85 52.1986 128.7 55.6286 126.64 56.9486C124.58 58.2686 121.4 56.9686 119.54 54.0586C117.68 51.1486 117.83 47.7186 119.89 46.3986C121.95 45.0786 125.13 46.3786 127 49.2886H126.99Z" fill="#EFAA7B"/>
<path d="M172.35 47.6585C173.874 47.6585 175.11 45.3573 175.11 42.5185C175.11 39.6798 173.874 37.3785 172.35 37.3785C170.826 37.3785 169.59 39.6798 169.59 42.5185C169.59 45.3573 170.826 47.6585 172.35 47.6585Z" fill="#EFAA7B"/>
<path d="M313.96 542.129C312.09 545.159 312.75 549.689 318.27 550.579C323.79 551.469 328.17 550.559 331.85 548.719C335.99 546.649 336.68 545.479 339.14 542.919C341.21 540.769 352.22 539.689 347.03 530.909C343.19 524.429 313.96 542.129 313.96 542.129Z" fill="#F7F2F3"/>
<path d="M346.83 533.049C346.12 538.929 340.42 537.679 337.21 541.959C334 546.239 326.7 547.839 321.18 547.839C315.66 547.839 310.67 542.849 316.73 539.469C317.89 538.819 319.12 537.899 320.33 536.819C325.45 532.289 330.44 524.979 330.44 523.249H346.12C346.12 523.249 347.54 527.169 346.83 533.049Z" fill="#375794"/>
<path d="M339.55 523.249C339.33 523.979 338.09 524.259 337.59 525.129C330.71 537.189 325.82 540.499 322.95 539.969C320.89 539.589 320.43 538.619 320.33 536.819C325.45 532.289 330.44 524.979 330.44 523.249H339.55Z" fill="#3D65A5"/>
<path d="M322.589 534.399L322.239 535.315L328.412 537.678L328.762 536.763L322.589 534.399Z" fill="#F7F2F3"/>
<path d="M324.966 531.333L324.616 532.248L330.789 534.612L331.139 533.697L324.966 531.333Z" fill="#F7F2F3"/>
<path d="M327.362 528.291L327.012 529.206L333.185 531.569L333.535 530.654L327.362 528.291Z" fill="#F7F2F3"/>
<path d="M329.736 525.234L329.385 526.149L335.558 528.513L335.909 527.597L329.736 525.234Z" fill="#F7F2F3"/>
<path d="M359.76 547.829C359.03 550.959 359.21 554.899 369.88 554.549C380.55 554.189 381.07 551.699 380 547.829C378.93 543.959 359.75 547.829 359.75 547.829H359.76Z" fill="#F7F2F3"/>
<path d="M360.82 525.119C361 529.779 361.72 535.729 360.82 540.199C359.92 544.669 356.69 552.209 368.89 551.849C381.09 551.489 380.19 546.469 379.83 543.959C379.47 541.449 378.39 527.449 378.39 527.449L360.81 525.119H360.82Z" fill="#375794"/>
<path d="M366.38 525.119C366.92 528.169 367.46 534.999 366.38 538.489C365.3 541.979 366.57 544.309 369.88 544.489C373.19 544.669 376.45 543.729 374.27 525.109H366.38V525.119Z" fill="#3D65A5"/>
<path d="M374.97 538.649H366.2V539.629H374.97V538.649Z" fill="#F7F2F3"/>
<path d="M374.97 535.509H366.2V536.489H374.97V535.509Z" fill="#F7F2F3"/>
<path d="M374.97 532.379H366.2V533.359H374.97V532.379Z" fill="#F7F2F3"/>
<path d="M374.97 529.239H366.2V530.219H374.97V529.239Z" fill="#F7F2F3"/>
<path d="M313.61 358.159C313.61 372.939 315.32 397.409 315.32 405.519C315.32 413.629 313.61 433.679 315.32 443.919C317.03 454.159 317.88 478.049 317.88 487.439C317.88 496.829 324.87 526.789 324.87 526.789C324.87 526.789 331.15 527.119 337.31 528.399C343.47 529.679 347.74 528.399 347.74 528.399C351.15 514.749 349.02 500.239 347.74 485.309C346.46 470.379 346.03 457.149 346.89 448.619C347.74 440.089 350.73 398.279 350.73 398.279C350.73 398.279 353.59 442.649 354.5 452.889C355.42 463.129 357.76 513.469 357.76 529.789C363.62 529.749 380.17 532.669 380.17 532.669C380.17 532.669 379.7 525.839 381.21 521.579C382.72 517.309 384.25 513.739 384.25 499.659C384.25 485.579 383.14 464.839 385.7 442.229C388.26 419.619 386.56 345.459 386.56 345.459L313.6 358.179L313.61 358.159Z" fill="#5271A1"/>
<path d="M350.42 356.619H349.73V388.839H350.42V356.619Z" fill="#3A2023"/>
<path d="M335.76 234.719C297.38 238.239 297.89 255.429 297.51 263.229C296.96 274.409 298.31 286.329 298.31 286.329C298.31 286.329 304.06 285.909 306.3 286.329C308.54 286.749 316.26 287.029 319.2 286.329L310.36 324.059L309.86 370.259C312.33 372.909 322.93 369.189 329.81 371.009C336.68 372.829 353.35 371.959 358.23 371.579C364.16 371.119 378.51 373.919 389.31 368.169C389.31 368.169 388.07 334.289 386.55 323.199C384.83 310.619 380.76 282.969 380.76 282.969C380.76 282.969 396.33 284.929 401.52 281.849C403.62 269.369 404.89 250.149 396.05 243.699C387.21 237.249 366.32 234.579 366.32 234.579L335.75 234.719H335.76Z" fill="#C15F44"/>
<path d="M371.11 273.449H328.1V309.059H371.11V273.449Z" fill="#FDF0E6"/>
<path d="M339.01 219.849C339.13 225.739 338.99 233.169 335.76 234.719C339.82 241.869 347.26 242.709 352.31 242.709C357.36 242.709 364.61 237.939 366.34 234.579C361.43 232.059 360.79 225.179 360.97 220.839L339.01 219.859V219.849Z" fill="#F29275"/>
<path d="M320.05 286.149C319.99 283.789 320.01 281.339 320.03 278.959C320.07 274.399 320.11 270.079 319.63 266.499L320.6 266.369C321.09 270.019 321.05 274.369 321.01 278.969C320.99 281.339 320.97 283.779 321.02 286.129L320.04 286.149H320.05Z" fill="#843A26"/>
<path d="M380.05 282.969C379.49 282.469 379.44 275.219 379.58 271.629C379.78 266.409 380.46 259.549 382.58 256.499L383.38 257.059C379.69 262.359 380.43 281.259 380.81 282.379C380.81 282.379 380.78 282.299 380.7 282.229L380.05 282.959V282.969Z" fill="#843A26"/>
<path d="M329.82 456.199V455.509C334.06 455.509 338.57 452.959 343.22 447.939L343.72 448.409C338.94 453.579 334.26 456.199 329.82 456.199Z" fill="#3A2023"/>
<path d="M351.5 163.239C328.03 162.519 325.77 182.229 327.83 197.629C329.9 213.029 337.22 226.179 350.75 226.369C364.27 226.559 371.6 210.969 373.29 199.879C374.98 188.799 376.11 163.979 351.5 163.229V163.239Z" fill="#F29275"/>
<path d="M350.99 226.859C350.91 226.859 350.82 226.859 350.74 226.859C346.35 226.799 342.41 225.399 339.02 222.699L339.63 221.929C342.84 224.489 346.58 225.819 350.75 225.869C354.25 225.929 357.52 224.879 360.48 222.779L361.05 223.579C357.98 225.749 354.6 226.849 350.99 226.849V226.859Z" fill="#AD6F53"/>
<path d="M342.47 211.909C344.54 216.789 352.61 219.989 356.75 211.909C352.34 212.569 347.29 212.609 342.47 211.909Z" fill="white"/>
<path d="M349.85 208.309C348.63 208.259 347.67 207.839 347.22 207.149C346.97 206.769 346.76 206.119 347.13 205.189C347.79 203.529 348.1 200.599 348.1 198.579H349.08C349.08 200.759 348.76 203.759 348.04 205.549C347.86 205.989 347.86 206.339 348.04 206.609C348.31 207.019 349.01 207.289 349.89 207.329L349.85 208.309Z" fill="#AD6F53"/>
<path d="M340.79 197.189C340.79 198.509 339.99 199.579 339.01 199.579C338.03 199.579 337.23 198.509 337.23 197.189C337.23 195.869 338.03 194.799 339.01 194.799C339.99 194.799 340.79 195.869 340.79 197.189Z" fill="#1C2F3F"/>
<path d="M361.81 197.189C361.81 198.509 361.01 199.579 360.03 199.579C359.05 199.579 358.25 198.509 358.25 197.189C358.25 195.869 359.05 194.799 360.03 194.799C361.01 194.799 361.81 195.869 361.81 197.189Z" fill="#1C2F3F"/>
<path d="M364.61 192.839C364.4 192.839 364.18 192.789 363.99 192.669C363.09 192.139 359.23 191.519 357.8 192.129C357.18 192.399 356.46 192.099 356.19 191.479C355.93 190.859 356.22 190.139 356.84 189.869C359.14 188.889 363.82 189.719 365.23 190.559C365.81 190.899 366.01 191.659 365.66 192.239C365.43 192.629 365.02 192.839 364.6 192.839H364.61Z" fill="#2B0A17"/>
<path d="M335.76 192.649C335.32 192.649 334.89 192.409 334.67 191.989C334.36 191.389 334.59 190.649 335.19 190.339C336.65 189.579 341.36 188.999 343.61 190.089C344.22 190.389 344.47 191.119 344.17 191.729C343.87 192.339 343.14 192.589 342.53 192.289C341.13 191.609 337.25 192.019 336.32 192.509C336.14 192.599 335.94 192.649 335.75 192.649H335.76Z" fill="#2B0A17"/>
<path d="M327.23 196.709C327.23 196.709 325.69 196.029 324.47 190.939C323.9 188.559 323.98 185.209 324.54 180.869C325.1 176.519 325.43 163.939 337.23 159.269C344.34 156.459 351.03 156.939 353.83 159.509C360.28 155.159 364.24 156.569 367.47 158.119C370.7 159.669 371.39 163.579 371.24 167.789C378.24 166.109 380.19 171.849 380.19 175.919C380.19 180.489 379.36 186.709 379.24 190.189C379.14 193.369 377.6 199.609 375.59 199.609C371.95 199.609 371.66 191.209 372.62 188.719C374.43 183.999 370.6 181.059 369.62 178.679C364.43 181.629 353.04 181.769 345.44 178.679C339.7 176.349 335.78 175.359 333.65 176.599C331.02 178.119 329.59 180.519 328.94 183.249C328.53 184.959 329.04 197.229 329.04 197.229L327.25 196.749L327.23 196.709Z" fill="#2B0A17"/>
<path d="M328.346 205.591C330.118 205.385 331.289 202.945 330.962 200.141C330.635 197.338 328.933 195.234 327.161 195.44C325.389 195.647 324.218 198.087 324.546 200.891C324.873 203.694 326.575 205.798 328.346 205.591Z" fill="#F29275"/>
<path d="M370.87 199.469C370.5 202.319 371.72 204.839 373.6 205.089C375.48 205.339 377.32 203.229 377.69 200.369C378.06 197.519 376.84 194.999 374.96 194.749C373.08 194.499 371.24 196.609 370.87 199.469Z" fill="#F29275"/>
<path d="M327.69 202.829C327.19 202.829 326.82 202.639 326.59 202.449C325.68 201.699 325.63 200.219 325.64 199.779C325.66 198.479 326.2 197.659 326.73 197.419C327.19 197.209 327.83 197.239 328.17 197.769C328.28 197.949 328.23 198.189 328.06 198.299C327.89 198.419 327.66 198.369 327.55 198.189C327.44 198.019 327.17 198.059 327.02 198.129C326.78 198.239 326.39 198.789 326.37 199.789C326.36 200.509 326.53 201.419 327.04 201.839C327.32 202.069 327.68 202.119 328.13 201.989C328.32 201.939 328.53 202.059 328.58 202.259C328.63 202.469 328.52 202.679 328.32 202.729C328.09 202.789 327.88 202.819 327.69 202.819V202.829Z" fill="#AD6F53"/>
<path d="M374.17 202.149C373.97 202.149 373.74 202.119 373.5 202.059C373.29 201.999 373.17 201.789 373.22 201.579C373.28 201.369 373.49 201.249 373.7 201.299C374.18 201.429 374.56 201.379 374.86 201.139C375.4 200.709 375.59 199.779 375.57 199.049C375.55 198.029 375.14 197.469 374.88 197.359C374.72 197.289 374.43 197.249 374.31 197.429C374.19 197.609 373.95 197.659 373.77 197.539C373.59 197.419 373.54 197.179 373.66 196.999C374.01 196.449 374.7 196.429 375.19 196.639C375.76 196.879 376.33 197.719 376.35 199.039C376.35 199.489 376.3 200.999 375.33 201.759C375.08 201.959 374.7 202.149 374.16 202.149H374.17Z" fill="#AD6F53"/>
<path d="M337.23 208.689C339.207 208.689 340.81 207.086 340.81 205.109C340.81 203.131 339.207 201.529 337.23 201.529C335.253 201.529 333.65 203.131 333.65 205.109C333.65 207.086 335.253 208.689 337.23 208.689Z" fill="#F4837D"/>
<path d="M364.31 464.309C360.62 463.139 356.48 458.209 355.08 454.519L355.6 454.319C356.95 457.879 361.04 462.679 364.47 463.769L364.3 464.299L364.31 464.309Z" fill="#3A2023"/>
<path d="M362.75 208.949C364.727 208.949 366.33 207.346 366.33 205.369C366.33 203.391 364.727 201.789 362.75 201.789C360.773 201.789 359.17 203.391 359.17 205.369C359.17 207.346 360.773 208.949 362.75 208.949Z" fill="#F4837D"/>
<path d="M290.49 348.519V258.179H402.92L400.78 348.519H290.49Z" fill="#F7B977"/>
<path d="M290.77 298.799C290.88 296.169 287.57 295.939 286.99 297.879C286.41 299.819 286.19 302.459 286.3 303.599C286.41 304.739 283.9 306.349 282.07 307.259C280.24 308.179 279.55 311.489 279.21 313.439C278.87 315.389 279.32 323.399 282.53 326.939C285.73 330.489 290.77 331.519 290.77 331.519V327.739C290.77 327.739 295.69 325.909 296.95 325.109C298.21 324.309 297.87 321.789 295.69 321.909C301.41 320.649 300.12 317.099 297.68 316.989C301.99 316.759 302.22 315.359 302.22 314.059C302.22 312.759 300.39 311.959 298.67 311.839C301.76 311.729 301.65 308.639 299.36 307.829C297.07 307.019 290.67 305.539 290.67 305.539L290.78 298.789L290.77 298.799Z" fill="#F29275"/>
<path d="M284.587 310.788L284.555 311.447L298.628 312.133L298.66 311.474L284.587 310.788Z" fill="#4C281F"/>
<path d="M284.598 316.548L284.592 317.208L297.681 317.322L297.687 316.662L284.598 316.548Z" fill="#4C281F"/>
<path d="M295.638 321.595L285.221 323.2L285.321 323.853L295.738 322.247L295.638 321.595Z" fill="#4C281F"/>
<path d="M290.654 305.214L285.265 305.558L285.308 306.217L290.697 305.872L290.654 305.214Z" fill="#4C281F"/>
<path d="M410.71 282.549C409.23 280.449 409.79 277.289 406.13 276.139C402.47 274.999 401.32 275.339 399.49 275.449C397.66 275.559 397.77 278.059 399.49 278.929C401.21 279.799 406.59 281.289 406.59 281.289C406.59 281.289 396.98 281.059 394.46 280.949C391.94 280.839 392.51 283.699 394.46 284.379C396.41 285.069 402.93 285.979 402.93 285.979C402.93 285.979 396.86 286.439 394.23 286.899C391.6 287.359 392.28 289.649 395.26 289.989C398.24 290.329 404.53 291.939 404.53 291.939V294.919H397.66C395.94 294.919 396.06 297.319 398.23 298.119C400.4 298.919 401.65 299.379 401.65 299.379V328.559C408.99 328.559 414.37 322.489 414.71 316.089C415.05 309.679 411.05 301.669 411.39 299.269C411.73 296.869 414.25 287.599 410.7 282.559L410.71 282.549Z" fill="#F29275"/>
<path d="M403.037 285.724L402.868 286.362L410.194 288.308L410.363 287.67L403.037 285.724Z" fill="#4C281F"/>
<path d="M404.631 291.591L404.396 292.208L409.2 294.038L409.435 293.421L404.631 291.591Z" fill="#4C281F"/>
<path d="M401.686 299.023L401.575 299.674L407.659 300.704L407.769 300.053L401.686 299.023Z" fill="#4C281F"/>
<path d="M352.13 258.179H344.3V278.689H352.13V258.179Z" fill="#F9D4B2"/>
<path d="M352.13 328.009H344.3V348.519H352.13V328.009Z" fill="#F9D4B2"/>
</svg>
