<svg width="506" height="488" viewBox="0 0 506 488" fill="none" xmlns="http://www.w3.org/2000/svg">
<g style="mix-blend-mode:multiply" opacity="0.42">
<path d="M515.608 342.35C536.938 339.86 595.928 335.4 610.368 335.72C628.138 336.12 640.748 336.87 649.988 340.22C659.228 343.57 676.328 351.37 605.978 354.68C535.628 357.99 499.318 353.25 494.678 351.86C485.258 349.04 497.758 344.43 515.608 342.35Z" fill="#B7A89E"/>
</g>
<g style="mix-blend-mode:multiply" opacity="0.42">
<path d="M252.128 367.53C276.568 364.1 349.718 364.17 366.258 364.62C386.618 365.17 401.068 366.2 411.658 370.82C418.278 373.71 619.048 346.59 618.288 398.81C617.908 425.1 451.488 426.34 410.928 403.35C385.118 406.03 322.138 408.36 301.038 406.66C285.128 405.38 241.198 398.04 233.718 386.85C227.338 377.31 231.688 370.4 252.128 367.54V367.53Z" fill="#B7A89E"/>
</g>
<path d="M519.188 274.54H379.828L354.428 267.94H500.608L519.188 274.54Z" fill="#CC8E5C"/>
<path d="M379.828 392.21L354.428 385.62V267.94L379.828 274.54V392.21Z" fill="#704634"/>
<path d="M519.198 274.54H379.828V392.21H519.198V274.54Z" fill="#CC8E5C"/>
<g style="mix-blend-mode:screen" opacity="0.35">
<path d="M455.158 275.03H443.808V392.18H455.158V275.03Z" fill="#B26949"/>
</g>
<path d="M376.768 330.59H279.318V393.05H376.768V330.59Z" fill="#F7B977"/>
<path d="M237.178 376.49L279.318 393.05V330.59L237.178 318.93V376.49Z" fill="#CC8E5C"/>
<path d="M237.178 318.93L279.318 330.59H376.768L352.048 318.93H237.178Z" fill="#FCCBA2"/>
<path d="M252.128 323.07V334.09L260.708 337.09V325.44L252.128 323.07Z" fill="#B4754F"/>
<path d="M252.128 382.37V371.47L259.958 374.02V385.44L252.128 382.37Z" fill="#B4754F"/>
<path d="M370.208 268.19L393.988 273.47V186.57L370.208 181.29V268.19Z" fill="#8C5844"/>
<path d="M492.998 186.57H393.988V273.48H492.998V186.57Z" fill="#F7B977"/>
<path d="M492.998 186.57H393.988L370.208 181.29H467.928L492.998 186.57Z" fill="#FCCBA2"/>
<path d="M378.758 183.19V193.26L385.598 195.05V184.7L378.758 183.19Z" fill="#B4754F"/>
<path d="M378.758 270.09V258.84L386.348 260.51V271.78L378.758 270.09Z" fill="#B4754F"/>
<path d="M446.038 186.57H437.448V273.01H446.038V186.57Z" fill="#F9C495"/>
<path d="M371.868 261.13H281.748V326.02H371.868V261.13Z" fill="#F7B977"/>
<path d="M281.748 326.02L258.248 319.42V254.53L281.748 261.13V326.02Z" fill="#CC8E5C"/>
<path d="M371.868 261.13L358.808 254.53H258.248L281.748 261.13H371.868Z" fill="#FCCBA2"/>
<path d="M266.098 256.74V269.17L273.168 271.48V258.72L266.098 256.74Z" fill="#B4754F"/>
<path d="M266.098 321.62V310.06L273.168 312.32V323.61L266.098 321.62Z" fill="#B4754F"/>
<path d="M332.598 261.63H325.038V326.02H332.598V261.63Z" fill="#F9C495"/>
<path d="M592.468 319.77H451.478V412.04H592.468V319.77Z" fill="#F7B977"/>
<path d="M451.478 412.04L415.728 401.48V309.21L451.478 319.77V412.04Z" fill="#E8A364"/>
<path d="M592.468 319.77L564.408 309.21H415.728L451.478 319.77H592.468Z" fill="#FCCBA2"/>
<path d="M429.598 313.31V323.01L436.878 325.6V315.45L429.598 313.31Z" fill="#B4754F"/>
<path d="M429.598 405.58V394.98L437.918 397.07V408.03L429.598 405.58Z" fill="#B4754F"/>
<path d="M384.538 156.65H290.178V260.08H384.538V156.65Z" fill="#F4B887"/>
<path d="M290.178 260.08L271.888 254.8V151.37L290.178 156.65V260.08Z" fill="#CC8E5C"/>
<path d="M384.538 156.65L362.458 151.37H271.888L290.178 156.65H384.538Z" fill="#FCD9C0"/>
<path d="M277.698 153.04V164.12L284.038 165.92V154.87L277.698 153.04Z" fill="#B4754F"/>
<path d="M277.698 256.47V243.84L284.038 246.54V258.3L277.698 256.47Z" fill="#B4754F"/>
<path d="M459.878 232.4C457.208 237.56 459.918 244.78 466.928 248.41C473.948 252.04 483.868 250.86 486.538 245.69C489.208 240.53 485.138 233.86 478.128 230.23C471.108 226.6 462.548 227.23 459.878 232.4Z" fill="#444444"/>
<path d="M493.058 232.52C492.888 236.25 490.138 244.06 486.538 245.7L484.308 235.05C484.308 235.05 490.038 232.64 491.128 231.8C492.208 230.96 493.088 231.8 493.058 232.52Z" fill="#444444"/>
<path d="M473.118 229.63C473.118 229.63 469.578 221.68 468.978 219.52C468.378 217.35 466.088 218.56 464.888 220.48C463.688 222.41 462.358 228.93 462.598 231.45L473.118 229.63Z" fill="#444444"/>
<path d="M478.818 243.16C479.178 243.16 479.508 243.11 479.788 242.99C479.918 242.94 479.988 242.78 479.938 242.65C479.888 242.52 479.728 242.45 479.598 242.5C478.958 242.76 477.898 242.62 477.068 242.18C476.408 241.83 475.978 241.32 475.858 240.76C475.828 240.62 475.688 240.53 475.548 240.56C475.408 240.59 475.318 240.73 475.348 240.87C475.498 241.59 476.028 242.22 476.828 242.64C477.448 242.97 478.178 243.15 478.828 243.15L478.818 243.16Z" fill="#070707"/>
<path d="M467.788 236.97C468.088 236.97 468.398 236.93 468.678 236.86C468.818 236.82 468.908 236.68 468.868 236.54C468.828 236.4 468.688 236.31 468.548 236.35C467.168 236.69 465.428 236.09 464.888 234.47C464.838 234.33 464.698 234.26 464.558 234.3C464.418 234.35 464.348 234.49 464.388 234.63C464.908 236.19 466.378 236.96 467.778 236.96L467.788 236.97Z" fill="#070707"/>
<path d="M467.288 240.77C466.998 241.27 467.368 242.01 468.098 242.44C468.828 242.86 469.658 242.81 469.948 242.31C470.238 241.81 469.868 241.07 469.138 240.64C468.408 240.22 467.578 240.27 467.288 240.77Z" fill="#1C1C1C"/>
<path d="M483.688 245.69C486.508 250.48 488.228 252.36 491.208 253.93C494.188 255.5 505.458 264.58 509.998 278.52C514.538 292.46 509.688 311.25 504.518 316.11C499.348 320.97 487.278 322.37 479.688 321.75C472.098 321.12 456.128 319.4 450.328 320.5C444.538 321.6 438.738 323.16 436.228 328.17C433.718 333.18 428.238 330.99 429.028 325.98C429.808 320.97 432.318 316.9 441.868 315.17C451.418 313.45 462.698 313.13 462.698 313.13C457.368 305.61 460.628 297.94 464.018 294.49C467.398 291.04 470.188 290.1 470.188 290.1C470.188 290.1 471.538 285.24 468.608 274.91C465.678 264.57 461.418 253.5 464.018 244.31L483.688 245.68V245.69Z" fill="#444444"/>
<path d="M469.148 245.96C469.588 245.96 469.998 245.88 470.298 245.74C470.428 245.68 470.488 245.52 470.428 245.39C470.368 245.26 470.208 245.2 470.078 245.26C469.558 245.5 468.588 245.52 467.918 245.14C467.558 244.94 467.348 244.65 467.308 244.29L467.278 243.99L466.988 244.06C466.298 244.24 465.468 244 464.878 243.46C464.438 243.06 464.218 242.57 464.288 242.16C464.308 242.02 464.218 241.88 464.068 241.86C463.928 241.84 463.788 241.93 463.768 242.08C463.668 242.67 463.958 243.34 464.518 243.86C465.168 244.46 466.038 244.74 466.838 244.63C466.958 245.03 467.238 245.37 467.648 245.6C468.088 245.85 468.628 245.96 469.138 245.96H469.148Z" fill="#070707"/>
<path d="M467.813 242.229L466.773 244.111L467.237 244.367L468.277 242.485L467.813 242.229Z" fill="#070707"/>
<path d="M470.278 290.36C473.328 289.25 475.738 288.46 477.328 287.94C478.758 287.47 479.548 287.21 479.818 287.05L479.558 286.6C479.338 286.73 478.468 287.01 477.168 287.44C475.568 287.96 473.158 288.76 470.108 289.87L470.288 290.36H470.278Z" fill="#070707"/>
<path d="M470.248 313.98C475.148 313.98 477.278 312.98 479.098 312.12L478.878 311.64C476.378 312.82 473.258 314.28 462.738 312.87L462.668 313.39C465.768 313.81 468.238 313.98 470.248 313.98Z" fill="#070707"/>
<path d="M473.068 250.59L473.158 250.07C468.158 249.21 466.698 248.15 464.298 246.4L463.938 246.14L463.628 246.57L463.988 246.83C466.368 248.56 467.948 249.71 473.068 250.59Z" fill="#070707"/>
<path d="M451.038 166.98C448.988 175.59 446.018 181.17 441.808 183.33C438.248 185.16 429.418 184.93 425.738 183.33C421.398 181.44 418.558 175.58 416.508 166.98C414.458 158.37 420.228 154.2 423.688 152.54C426.778 151.06 430.528 149.48 430.528 143.89V115.62H437.018V143.89C437.018 149.48 440.768 151.07 443.858 152.54C447.318 154.19 453.088 158.37 451.038 166.98Z" fill="#709AC3"/>
<path d="M462.678 77.3899C462.678 78.6099 449.728 79.6099 433.768 79.6099C432.988 79.6099 432.218 79.6099 431.458 79.5999C423.468 79.5499 416.398 79.2599 411.558 78.8099C407.378 78.4199 404.868 77.9299 404.868 77.3899C404.868 76.1699 417.808 75.1699 433.768 75.1699C449.728 75.1699 462.678 76.1699 462.678 77.3899Z" fill="#FC9627"/>
<path d="M437.098 80.11C437.098 81.02 436.188 81.77 435.058 81.77H432.488C431.358 81.77 430.448 81.03 430.448 80.11V74.66C430.448 73.75 431.358 73 432.488 73H435.058C436.188 73 437.098 73.74 437.098 74.66V80.11Z" fill="#709AC3"/>
<path d="M462.658 77.03V120.34C462.658 120.34 457.528 123.15 433.768 123.15C432.978 123.15 432.208 123.15 431.458 123.14C421.918 123.06 415.618 122.5 411.558 121.91C406.448 121.16 404.888 120.35 404.888 120.35V77.04C404.888 77.04 414.848 78.51 433.778 78.58C453.628 78.65 462.668 77.04 462.668 77.04L462.658 77.03Z" fill="#F7B75C"/>
<path d="M431.458 79.6V123.13C421.918 123.05 415.618 122.49 411.558 121.9V78.8101C416.398 79.2601 423.468 79.56 431.458 79.6Z" fill="#FC9627"/>
<path d="M428.598 154.02C425.508 154.02 420.808 158.64 420.638 163.91C420.478 169.18 424.048 172.72 425.348 172.66C426.648 172.61 425.568 168.29 426.488 163.34C427.308 158.89 431.518 154.02 428.598 154.02Z" fill="#B6CBCE"/>
<path d="M333.988 145.93C334.118 147.2 333.368 148.31 332.328 148.42C331.278 148.53 330.328 147.58 330.198 146.32C330.068 145.05 330.818 143.94 331.858 143.83C332.908 143.72 333.858 144.67 333.988 145.93Z" fill="white"/>
<path d="M336.378 154.53C336.508 155.8 335.758 156.91 334.718 157.02C333.668 157.13 332.718 156.18 332.588 154.92C332.458 153.65 333.208 152.54 334.248 152.43C335.298 152.32 336.248 153.27 336.378 154.53Z" fill="white"/>
<path d="M339.228 163.72C339.358 164.99 338.608 166.1 337.568 166.21C336.528 166.32 335.568 165.37 335.438 164.11C335.308 162.84 336.058 161.73 337.098 161.62C338.148 161.51 339.098 162.46 339.228 163.72Z" fill="white"/>
<path d="M360.908 163.85C361.038 165.12 360.288 166.23 359.248 166.34C358.198 166.45 357.248 165.5 357.118 164.24C356.988 162.97 357.738 161.86 358.778 161.75C359.828 161.64 360.778 162.59 360.908 163.85Z" fill="white"/>
<path d="M359.038 155.21C359.168 156.48 358.418 157.59 357.378 157.7C356.328 157.81 355.378 156.86 355.248 155.6C355.118 154.34 355.868 153.22 356.908 153.11C357.958 153 358.908 153.95 359.038 155.21Z" fill="white"/>
<path d="M357.248 146.57C357.378 147.84 356.628 148.95 355.588 149.06C354.538 149.17 353.588 148.22 353.458 146.96C353.328 145.69 354.078 144.58 355.118 144.47C356.168 144.36 357.118 145.31 357.248 146.57Z" fill="white"/>
<path d="M335.068 135.93L343.658 166.45L346.968 171.35L357.728 170.26L358.038 165.4L352.308 136.6L343.778 134.51L335.068 135.93Z" fill="#EEA549"/>
<path d="M345.908 171.46L342.008 167.43L333.608 138.76L335.068 135.93L343.658 166.45L346.968 171.35L356.438 271.55L355.238 271.67L345.908 171.46Z" fill="#88471D"/>
<path d="M357.728 170.26L367.858 270.39L370.588 297.35L359.298 298.49L346.968 171.35L357.728 170.26Z" fill="#BD7D42"/>
<path d="M357.746 170.205L346.991 171.293L347.122 172.587L357.877 171.498L357.746 170.205Z" fill="#FCEDCC"/>
<path d="M358.777 180.399L348.022 181.488L348.153 182.781L358.908 181.693L358.777 180.399Z" fill="#FCEDCC"/>
<path d="M359.718 189.687L348.963 190.776L349.094 192.069L359.849 190.981L359.718 189.687Z" fill="#FCEDCC"/>
<path d="M360.582 198.207L349.827 199.296L349.958 200.589L360.713 199.501L360.582 198.207Z" fill="#FCEDCC"/>
<path d="M361.18 206.763L350.425 207.852L350.556 209.145L361.311 208.057L361.18 206.763Z" fill="#FCEDCC"/>
<path d="M362.276 214.901L351.252 216.017L351.383 217.31L362.407 216.194L362.276 214.901Z" fill="#FCEDCC"/>
<path d="M362.999 222.022L351.976 223.138L352.107 224.432L363.13 223.316L362.999 222.022Z" fill="#FCEDCC"/>
<path d="M363.752 229.429L352.728 230.545L352.859 231.839L363.883 230.723L363.752 229.429Z" fill="#FCEDCC"/>
<path d="M364.422 236.128L353.398 237.244L353.529 238.537L364.553 237.421L364.422 236.128Z" fill="#FCEDCC"/>
<path d="M364.975 242.828L353.951 243.944L354.082 245.237L365.106 244.122L364.975 242.828Z" fill="#FCEDCC"/>
<path d="M365.684 248.518L354.661 249.634L354.792 250.927L365.815 249.811L365.684 248.518Z" fill="#FCEDCC"/>
<path d="M366.227 253.936L355.203 255.052L355.334 256.345L366.357 255.229L366.227 253.936Z" fill="#FCEDCC"/>
<path d="M366.641 259.366L355.618 260.482L355.749 261.775L366.772 260.659L366.641 259.366Z" fill="#FCEDCC"/>
<path d="M367.184 264.675L356.161 265.791L356.292 267.084L367.315 265.968L367.184 264.675Z" fill="#FCEDCC"/>
<path d="M367.779 269.321L356.755 270.436L356.886 271.73L367.909 270.614L367.779 269.321Z" fill="#FCEDCC"/>
<path d="M368.206 273.487L357.183 274.603L357.314 275.896L368.337 274.781L368.206 273.487Z" fill="#FCEDCC"/>
<path d="M368.54 278.109L357.516 279.225L357.647 280.519L368.671 279.403L368.54 278.109Z" fill="#FCEDCC"/>
<path d="M368.947 282.069L357.923 283.185L358.054 284.478L369.078 283.362L368.947 282.069Z" fill="#FCEDCC"/>
<path d="M369.302 285.516L358.279 286.632L358.409 287.925L369.433 286.81L369.302 285.516Z" fill="#FCEDCC"/>
<path d="M369.638 288.974L358.614 290.09L358.745 291.384L369.769 290.268L369.638 288.974Z" fill="#FCEDCC"/>
<path d="M370.016 292.647L358.992 293.763L359.123 295.057L370.147 293.941L370.016 292.647Z" fill="#FCEDCC"/>
<path d="M373.238 415.08C328.578 418.22 322.898 392.82 321.788 375.86C320.678 358.9 335.138 339.65 338.028 334.47C342.058 327.27 340.578 321 336.528 313.6C332.468 306.2 328.438 296.08 331.088 286.6C333.738 277.12 341.828 273.1 354.278 271.99H354.408C358.498 271.6 367.858 270.39 367.858 270.39C380.228 268.63 392.898 271.79 397.388 280.54C401.878 289.3 401.498 299.22 399.008 307.28C396.518 315.34 396.318 321.78 401.708 328.03C405.578 332.53 422.458 348.99 424.768 365.82C427.068 382.66 424.348 408.68 373.238 415.08Z" fill="#EEA549"/>
<path d="M373.078 413.42H373.058C356.378 414.58 343.748 411.52 335.518 404.34C325.818 395.88 323.918 383.17 323.328 374.35C322.378 360.14 332.118 344.4 336.798 336.83C337.668 335.43 338.348 334.33 338.768 333.55C342.598 326.49 340.938 320.48 337.278 313.64C331.748 303.3 329.958 294.26 331.978 286.77C334.358 277.92 341.538 273.26 354.528 272.11H354.648C358.498 271.75 367.358 270.6 367.448 270.59C378.388 269.02 391.518 271.6 396.188 280.92C401.418 291.36 399.468 302.07 397.838 307.52C395.618 314.96 395.198 321.18 400.358 327.33C400.798 327.85 401.408 328.54 402.178 329.4C407.678 335.57 420.568 350.01 422.558 364.69C424.208 376.84 422.138 386.5 416.218 394.2C408.428 404.34 393.918 410.81 373.108 413.43H373.088L373.078 413.42ZM353.848 273.29C341.698 274.52 335.278 278.78 333.048 287.06C331.108 294.27 332.858 303.04 338.258 313.12C343.868 323.61 342.288 329.4 339.748 334.09C339.318 334.89 338.618 336.01 337.748 337.42C333.128 344.89 323.518 360.43 324.448 374.28C325.648 392.28 331.768 399.58 336.258 403.5C344.258 410.48 356.608 413.45 372.978 412.31C393.478 409.73 407.728 403.4 415.328 393.51C421.058 386.06 423.058 376.68 421.448 364.83C419.498 350.48 406.768 336.22 401.338 330.13C400.558 329.26 399.948 328.57 399.498 328.03C393.688 321.11 394.748 313.92 396.758 307.19C398.338 301.89 400.238 291.5 395.178 281.4C390.758 272.58 378.128 270.16 367.588 271.68C367.488 271.69 358.608 272.85 354.748 273.2H354.628C354.368 273.24 354.108 273.26 353.848 273.29Z" fill="#EFC792"/>
<path d="M373.238 415.08C315.588 419.39 313.858 393.61 312.748 376.64C311.638 359.68 326.098 340.43 328.988 335.25C333.018 328.05 331.538 321.78 327.478 314.38C323.428 306.98 319.978 297.22 323.458 288.01C326.848 279.04 341.948 272.74 354.398 271.96H354.268C341.818 273.08 333.728 277.11 331.078 286.58C328.428 296.06 332.458 306.19 336.518 313.58C340.568 320.98 342.048 327.24 338.018 334.45C335.118 339.63 320.658 358.88 321.778 375.84C322.888 392.8 328.578 418.19 373.228 415.06L373.238 415.08Z" fill="#875329"/>
<path d="M382.525 350.882L359.254 353.238L360.262 363.197L383.534 360.841L382.525 350.882Z" fill="#EFC792"/>
<path d="M342.058 142.8C342.118 143.42 341.668 143.97 341.058 144.03C340.438 144.09 339.888 143.64 339.828 143.03C339.768 142.41 340.218 141.86 340.828 141.8C341.448 141.74 341.998 142.19 342.058 142.8Z" fill="white"/>
<path d="M351.698 142.95C351.758 143.57 351.308 144.12 350.698 144.18C350.078 144.24 349.528 143.79 349.468 143.18C349.408 142.56 349.858 142.01 350.468 141.95C351.088 141.89 351.638 142.34 351.698 142.95Z" fill="white"/>
<path d="M344.948 151.4C345.008 152.02 344.558 152.57 343.948 152.63C343.328 152.69 342.778 152.24 342.718 151.63C342.658 151.01 343.108 150.46 343.718 150.4C344.338 150.34 344.888 150.79 344.948 151.4Z" fill="white"/>
<path d="M347.478 159.83C347.538 160.45 347.088 161 346.478 161.06C345.858 161.12 345.308 160.67 345.248 160.06C345.188 159.44 345.638 158.89 346.248 158.83C346.868 158.77 347.418 159.22 347.478 159.83Z" fill="white"/>
<path d="M355.668 159.74C355.728 160.36 355.278 160.91 354.668 160.97C354.048 161.03 353.498 160.58 353.438 159.97C353.378 159.35 353.828 158.8 354.438 158.74C355.058 158.68 355.608 159.13 355.668 159.74Z" fill="white"/>
<path d="M353.718 151.64C353.778 152.26 353.328 152.81 352.718 152.87C352.098 152.93 351.548 152.48 351.488 151.87C351.428 151.25 351.878 150.7 352.488 150.64C353.108 150.58 353.658 151.03 353.718 151.64Z" fill="white"/>
<path d="M336.508 147.18C336.508 147.18 336.458 147.18 336.438 147.18L332.468 146.85C332.008 146.81 331.668 146.41 331.708 145.95C331.748 145.49 332.148 145.15 332.608 145.19L336.578 145.52C337.038 145.56 337.378 145.96 337.338 146.42C337.298 146.86 336.938 147.19 336.508 147.19V147.18Z" fill="white"/>
<path d="M339.728 156.29C339.728 156.29 339.638 156.29 339.598 156.28L334.738 155.51C334.278 155.44 333.968 155.01 334.048 154.55C334.118 154.09 334.548 153.78 335.008 153.86L339.868 154.63C340.328 154.7 340.638 155.13 340.558 155.59C340.488 156 340.138 156.29 339.738 156.29H339.728Z" fill="white"/>
<path d="M342.048 165.85C341.978 165.85 341.898 165.84 341.818 165.82L337.668 164.66C337.228 164.54 336.968 164.07 337.088 163.63C337.208 163.19 337.668 162.93 338.118 163.05L342.268 164.21C342.708 164.33 342.968 164.8 342.848 165.24C342.748 165.61 342.408 165.85 342.048 165.85Z" fill="white"/>
<path d="M366.718 358.16C366.788 358.81 366.308 359.39 365.668 359.45C365.018 359.52 364.438 359.04 364.378 358.4C364.308 357.75 364.788 357.17 365.428 357.11C366.078 357.04 366.658 357.52 366.718 358.16Z" fill="white"/>
<path d="M368.958 357.94C369.028 358.59 368.548 359.17 367.908 359.23C367.258 359.3 366.678 358.82 366.618 358.18C366.558 357.54 367.028 356.95 367.668 356.89C368.318 356.82 368.898 357.3 368.958 357.94Z" fill="white"/>
<path d="M371.208 357.71C371.278 358.36 370.798 358.94 370.158 359C369.508 359.07 368.928 358.59 368.868 357.95C368.798 357.3 369.278 356.72 369.918 356.66C370.568 356.59 371.148 357.07 371.208 357.71Z" fill="white"/>
<path d="M373.458 357.48C373.528 358.13 373.048 358.71 372.408 358.77C371.758 358.84 371.178 358.36 371.118 357.72C371.048 357.07 371.528 356.49 372.168 356.43C372.818 356.36 373.398 356.84 373.458 357.48Z" fill="white"/>
<path d="M375.698 357.25C375.768 357.9 375.288 358.48 374.648 358.54C373.998 358.61 373.418 358.13 373.358 357.49C373.298 356.85 373.768 356.26 374.408 356.2C375.058 356.13 375.638 356.61 375.698 357.25Z" fill="white"/>
<path d="M377.948 357.03C378.018 357.68 377.538 358.26 376.898 358.32C376.248 358.39 375.668 357.91 375.608 357.27C375.538 356.62 376.018 356.04 376.658 355.98C377.308 355.91 377.888 356.39 377.948 357.03Z" fill="white"/>
<path d="M374.856 328.689C381.913 324.383 384.144 315.171 379.837 308.113C375.531 301.055 366.319 298.825 359.261 303.131C352.204 307.437 349.973 316.65 354.279 323.707C358.586 330.765 367.798 332.996 374.856 328.689Z" fill="#394045"/>
<path d="M368.798 333.09C359.318 334.05 350.818 327.11 349.858 317.63C348.898 308.15 355.838 299.65 365.318 298.69C374.798 297.73 383.298 304.67 384.258 314.15C385.218 323.63 378.278 332.13 368.798 333.09ZM365.428 299.8C356.558 300.7 350.068 308.65 350.968 317.52C351.868 326.39 359.818 332.88 368.688 331.98C377.558 331.08 384.048 323.13 383.148 314.26C382.248 305.39 374.298 298.9 365.428 299.8Z" fill="#EFC792"/>
<path d="M347.33 172.574L346.912 172.616L365.64 357.63L366.058 357.588L347.33 172.574Z" fill="#555655"/>
<path d="M349.33 172.373L348.912 172.415L367.64 357.43L368.058 357.388L349.33 172.373Z" fill="#555655"/>
<path d="M351.328 172.153L350.911 172.195L369.638 357.21L370.056 357.167L351.328 172.153Z" fill="#555655"/>
<path d="M353.348 171.951L352.93 171.994L371.658 357.008L372.076 356.966L353.348 171.951Z" fill="#555655"/>
<path d="M355.338 171.761L354.92 171.803L373.648 356.818L374.066 356.775L355.338 171.761Z" fill="#555655"/>
<path d="M357.348 171.561L356.93 171.603L375.658 356.617L376.075 356.575L357.348 171.561Z" fill="#555655"/>
<g style="mix-blend-mode:multiply">
<path d="M260.318 411.58C260.318 414.78 278.728 417.38 301.438 417.38C324.148 417.38 342.558 414.78 342.558 411.58C342.558 408.38 324.148 405.78 301.438 405.78C278.728 405.78 260.318 408.38 260.318 411.58Z" fill="#DADCDD"/>
</g>
<path d="M305.328 386.51C301.838 404.53 284.398 416.31 266.378 412.82C260.418 411.67 255.148 409 250.888 405.28C242.248 397.75 237.728 385.94 240.068 373.88C243.558 355.86 260.998 344.08 279.008 347.57C289.748 349.65 298.278 356.69 302.668 365.85C305.648 372.05 306.728 379.24 305.318 386.52L305.328 386.51Z" fill="white"/>
<path d="M243.808 376.84L245.458 390.64L244.568 397.12L253.898 407.11L260.588 406.65V406.63L274.218 409.32L280.108 412.17L292.498 406.38L294.128 399.88H294.108L300.878 387.75L305.418 383.03L303.738 369.46L298.058 365.9V365.92L288.608 355.73L285.518 349.95L272.088 347.35L266.948 351.66H266.958L254.348 357.5L247.908 358.65L241.288 370.62L243.798 376.84H243.808ZM276.898 356.77L274.488 369.2L263.118 374.51L252.038 368.38L254.338 358.25L267.718 352.06L276.898 356.77ZM297.918 366.76L296.278 376.94L283.708 378.49L275.148 369.32L277.558 356.89L287.908 355.94L297.928 366.75L297.918 366.76ZM293.268 400.02L283.078 401.61L277.868 390.47L284.148 379.12L296.358 377.61L300.458 387.15L293.268 400.02ZM255.538 396.68L264.358 388.44L277.358 390.96L282.468 401.9L274.658 408.75L260.198 405.89L255.538 396.69V396.68ZM244.408 376.24L251.718 368.97L262.478 374.92L264.068 387.8L255.078 396.19L246.148 390.88L244.398 376.24H244.408Z" fill="#394045"/>
<g style="mix-blend-mode:screen" opacity="0.5">
<path d="M279.938 369.16C278.338 377.41 270.348 382.81 262.088 381.22C259.358 380.69 256.948 379.47 254.988 377.76C251.028 374.31 248.958 368.9 250.028 363.37C251.628 355.11 259.618 349.71 267.868 351.31C272.788 352.26 276.698 355.49 278.708 359.69C280.078 362.53 280.568 365.82 279.928 369.16H279.938Z" fill="white"/>
</g>
<g style="mix-blend-mode:multiply">
<path d="M305.328 386.51C301.838 404.53 284.398 416.31 266.378 412.82C260.418 411.67 255.148 409 250.888 405.28C250.718 402.22 250.918 399.1 251.518 395.96C255.658 374.59 277.058 360.75 299.328 365.06C300.468 365.28 301.578 365.54 302.668 365.85C305.648 372.05 306.728 379.24 305.318 386.52L305.328 386.51Z" fill="#EBE5C7"/>
</g>
<g style="mix-blend-mode:multiply" opacity="0.42">
<path d="M275.511 469.245C234.451 465.781 120.919 459.578 93.1313 460.023C58.9337 460.578 34.6522 461.619 16.8661 466.286C-0.920074 470.953 -33.8282 481.792 101.571 486.398C236.971 491.004 306.853 484.408 315.794 482.468C333.926 478.539 309.858 472.134 275.511 469.235V469.245Z" fill="#B7A89E"/>
</g>
<path d="M247.738 468.608C251.328 468.058 262.058 466.608 262.028 470.738C261.988 474.858 233.128 471.548 233.128 471.548L247.748 468.608H247.738Z" fill="#3F140D"/>
<path d="M205.698 440.058C205.698 440.058 206.798 449.098 206.798 452.388C206.798 459.238 201.318 462.528 196.118 464.718C190.918 466.908 208.718 472.388 212.278 472.388C215.838 472.388 221.588 472.118 222.688 469.378C223.788 466.638 221.318 464.998 220.908 459.238C220.498 453.488 220.708 440.068 220.708 440.068H205.708L205.698 440.058Z" fill="#EFAA7B"/>
<path d="M195.168 462.248L212.278 472.388L224.878 470.748V472.388C224.878 472.388 193.928 476.498 186.528 476.498C179.128 476.498 176.668 473.488 181.868 469.378C187.068 465.268 193.208 461.098 195.168 462.258V462.248Z" fill="#752A19"/>
<path d="M242.848 440.058C242.848 440.058 243.948 449.098 243.948 452.388C243.948 459.238 238.468 462.528 233.268 464.718C228.068 466.908 245.868 472.388 249.428 472.388C252.988 472.388 258.738 472.118 259.838 469.378C260.938 466.638 258.468 464.998 258.058 459.238C257.648 453.488 257.858 440.068 257.858 440.068H242.858L242.848 440.058Z" fill="#EFAA7B"/>
<path d="M232.308 462.248L249.418 472.388L262.018 470.748V472.388C262.018 472.388 231.068 476.498 223.668 476.498C216.268 476.498 213.808 473.488 219.008 469.378C224.208 465.268 230.348 461.098 232.308 462.258V462.248Z" fill="#752A19"/>
<path d="M175.448 229.748C175.408 253.678 185.408 317.538 188.488 326.768C191.568 335.998 193.108 342.158 193.878 356.008C194.648 369.858 193.108 411.408 204.648 442.178C210.908 444.538 220.508 442.178 220.508 442.178C220.508 442.178 226.118 386.008 221.538 340.618C226.958 360.618 228.428 356.778 231.158 372.938C233.888 389.098 241.318 444.578 241.318 444.578H258.678C258.678 444.578 262.098 396.788 261.848 382.168C261.598 367.548 252.458 347.548 252.798 337.158C253.138 326.768 269.648 268.398 265.798 234.918L220.068 219.818L175.458 229.738L175.448 229.748Z" fill="#46637A"/>
<path d="M258.888 20.5484C261.768 17.5984 266.908 20.1984 269.078 23.7684C271.248 27.3384 274.178 37.3084 273.398 49.0984C272.618 60.8884 281.618 89.1684 281.618 89.1684C281.618 89.1684 263.058 101.488 254.838 95.2784C246.618 89.0684 240.048 51.9784 242.838 42.3184C245.628 32.6584 258.888 20.5584 258.888 20.5584V20.5484Z" fill="#1C2F3F"/>
<path d="M220.508 79.6184C211.038 81.6784 197.758 80.0284 191.998 95.2784C186.248 110.528 192.338 171.898 192.338 171.898C192.338 171.898 176.598 204.728 175.448 229.758H220.388C234.998 229.758 262.328 234.358 265.788 234.938C268.668 219.978 258.308 188.908 258.308 188.908C270.748 183.828 275.278 177.978 278.738 169.058C282.188 160.138 292.258 113.818 289.668 100.298C287.078 86.7784 276.298 83.9985 261.838 79.6285C247.378 75.2685 220.508 79.6285 220.508 79.6285V79.6184Z" fill="#C15F44"/>
<path d="M261.838 79.6184C259.608 87.7184 245.648 98.8484 235.568 97.4084C225.488 95.9684 219.468 87.3384 220.508 79.6184C222.698 79.6684 229.828 76.6984 230.318 75.2584C230.368 75.1084 230.408 74.9084 230.448 74.6784C230.538 74.0284 230.548 73.1084 230.528 72.1684C230.488 70.2984 230.318 68.3584 230.318 68.3584L235.988 66.0984L250.698 60.2384C250.648 62.4984 250.758 64.4884 250.988 66.2584C252.788 79.6284 261.828 79.6284 261.828 79.6284L261.838 79.6184Z" fill="#EFAA7B"/>
<g style="mix-blend-mode:multiply">
<path d="M250.998 66.2484C244.948 75.5784 233.978 75.0984 230.448 74.6684C230.538 74.0184 230.548 73.0984 230.528 72.1584L235.988 66.0884L250.698 60.2284C250.648 62.4884 250.758 64.4784 250.988 66.2484H250.998Z" fill="#C68B63"/>
</g>
<path d="M210.208 37.7484C210.938 43.4184 212.398 48.7684 214.348 53.4984C215.338 55.9184 216.468 58.1784 217.698 60.2284C220.288 64.5784 223.308 68.0184 226.468 70.1584C226.488 70.1784 226.508 70.1884 226.528 70.1984C227.508 70.8584 228.498 71.3884 229.498 71.7884C231.158 72.4584 232.838 72.7384 234.478 72.5984C236.908 72.3784 239.458 71.3984 241.908 69.7784C243.278 68.8684 244.628 67.7584 245.898 66.4784C248.528 63.8384 250.878 60.4484 252.598 56.5584C252.758 56.1884 252.918 55.8084 253.068 55.4284C254.188 52.6284 254.988 49.5984 255.358 46.3984C255.408 45.9284 255.458 45.4484 255.488 44.9684C255.538 44.2984 255.568 43.6184 255.578 42.9284C255.578 42.6184 255.578 42.3084 255.578 41.9884C255.568 41.1784 255.528 40.3684 255.458 39.5484C255.368 38.5684 255.248 37.5984 255.098 36.6584C254.548 33.2884 253.578 30.1784 252.268 27.3884C247.418 17.0484 237.948 11.0284 228.308 12.0984C217.548 13.2984 207.958 20.3184 210.208 37.7384V37.7484Z" fill="#EFAA7B"/>
<path d="M234.038 43.9984C234.228 45.5284 235.338 46.6484 236.518 46.5084C237.698 46.3584 238.498 44.9984 238.308 43.4684C238.118 41.9384 237.008 40.8183 235.828 40.9583C234.648 41.1083 233.848 42.4684 234.038 43.9984Z" fill="#1C2F3F"/>
<path d="M216.278 47.4684C216.458 48.8784 217.478 49.9184 218.568 49.7784C219.658 49.6384 220.388 48.3884 220.218 46.9784C220.048 45.5684 219.018 44.5284 217.928 44.6684C216.838 44.8084 216.108 46.0584 216.278 47.4684Z" fill="#1C2F3F"/>
<path d="M231.558 41.0384C231.838 41.0384 232.108 40.9484 232.338 40.7584C234.068 39.3484 237.548 38.8484 239.358 39.0884C240.038 39.1884 240.708 39.0584 240.798 38.3784C240.888 37.6984 240.298 37.4184 239.618 37.3284C237.628 37.0584 233.308 36.7584 230.768 38.8184C230.238 39.2484 230.158 40.0384 230.588 40.5684C230.838 40.8684 231.198 41.0284 231.558 41.0284V41.0384Z" fill="#1C2F3F"/>
<path d="M213.678 43.9584C213.988 43.9584 214.298 43.8384 214.538 43.6084C215.638 42.5584 217.718 42.4984 218.758 42.7084C219.438 42.8484 219.898 42.6484 220.028 41.9684C220.158 41.2984 219.648 41.0884 218.968 40.9884C216.908 40.6884 214.248 40.4284 212.808 41.8184C212.308 42.2984 212.298 43.0884 212.778 43.5784C213.018 43.8284 213.348 43.9584 213.678 43.9584Z" fill="#1C2F3F"/>
<path d="M227.798 57.1584C228.218 57.1584 228.648 57.0983 229.088 56.9883C229.258 56.9483 229.348 56.7783 229.308 56.6083C229.268 56.4383 229.098 56.3483 228.928 56.3883C227.758 56.6983 226.598 56.5284 225.898 55.9384C225.468 55.5784 225.268 55.1084 225.308 54.5684C225.408 53.3584 225.368 51.1584 225.338 49.2184C225.328 48.3784 225.308 47.5883 225.308 46.9883C225.308 46.8183 225.168 46.6783 224.998 46.6783C224.828 46.6783 224.688 46.8183 224.688 46.9883C224.688 47.5983 224.698 48.3784 224.718 49.2284C224.748 51.1584 224.788 53.3383 224.688 54.5183C224.628 55.2583 224.908 55.9283 225.498 56.4183C226.078 56.9083 226.908 57.1683 227.808 57.1683L227.798 57.1584Z" fill="#935931"/>
<path d="M236.338 58.6984C234.618 60.4184 227.588 62.2783 224.298 61.4183C226.308 66.4683 234.038 66.9984 236.338 58.6984Z" fill="white"/>
<path d="M252.988 42.5484C252.988 42.5484 253.218 30.4084 248.408 26.9984C243.598 23.5884 239.488 23.3984 234.278 22.9884C223.328 22.1384 220.848 18.2284 217.708 18.8484C214.568 19.4684 210.748 28.1384 210.208 37.7484C207.128 29.1584 208.328 19.7984 210.338 15.7684C212.358 11.7384 217.098 4.33838 227.658 1.53838C238.228 -1.25162 255.778 5.50838 259.198 18.8484C262.608 32.1884 255.588 45.0584 255.588 45.0584L252.988 42.5484Z" fill="#233C4C"/>
<path d="M253.098 40.3784C252.508 43.3784 253.758 46.1484 255.898 46.5684C258.028 46.9884 260.238 44.8984 260.828 41.9084C261.418 38.9084 260.168 36.1384 258.028 35.7184C255.888 35.2984 253.688 37.3884 253.098 40.3784Z" fill="#EFAA7B"/>
<path d="M256.698 43.3284H256.708C257.518 43.3284 258.338 42.7484 258.788 41.8684C259.148 41.1684 259.268 40.3584 259.138 39.5884C259.018 38.8684 258.678 38.2684 258.188 37.9184C257.568 37.4784 256.738 37.4684 256.198 37.9084C256.068 38.0184 256.048 38.2184 256.158 38.3484C256.268 38.4784 256.458 38.4984 256.598 38.3884C256.908 38.1384 257.448 38.1484 257.828 38.4284C258.308 38.7784 258.478 39.3684 258.528 39.6984C258.638 40.3384 258.528 41.0184 258.238 41.5984C257.978 42.1084 257.418 42.7184 256.708 42.7184C256.118 42.7184 255.548 42.2284 255.458 41.6484C255.428 41.4784 255.268 41.3684 255.108 41.3884C254.938 41.4184 254.818 41.5684 254.848 41.7384C254.978 42.6284 255.818 43.3484 256.708 43.3484L256.698 43.3284Z" fill="#935931"/>
<path d="M237.478 52.7084C237.478 54.8284 239.198 56.5384 241.308 56.5384C243.418 56.5384 245.138 54.8184 245.138 52.7084C245.138 50.5984 243.418 48.8784 241.308 48.8784C239.198 48.8784 237.478 50.5984 237.478 52.7084Z" fill="#ED947C"/>
<path d="M214.348 53.4984C215.338 55.9184 216.468 58.1784 217.698 60.2284C219.318 59.7884 220.508 58.2984 220.508 56.5384C220.508 54.4184 218.788 52.7084 216.678 52.7084C215.798 52.7084 214.988 52.9984 214.348 53.4984Z" fill="#ED947C"/>
<path d="M219.138 16.4784C219.168 16.3784 221.908 6.72839 231.158 3.00839L230.868 2.28839C221.258 6.15839 218.418 16.1684 218.398 16.2684L219.148 16.4684L219.138 16.4784Z" fill="#0D161C"/>
<path d="M156.118 156.178C155.848 154.468 173.208 152.738 181.598 152.608C189.988 152.478 207.298 153.748 207.168 154.798C207.038 155.848 181.748 162.408 181.748 162.408L156.118 156.178Z" fill="#684121"/>
<path d="M178.938 157.818C178.938 157.818 182.518 144.518 190.188 141.588C197.858 138.658 199.928 145.968 199.928 145.968C199.928 145.968 198.978 148.858 196.478 153.178C193.968 157.498 194.798 159.378 194.798 159.378L178.938 157.818Z" fill="#4D4F2F"/>
<path d="M156.118 156.178C156.698 161.928 160.098 176.448 162.278 183.278C164.458 190.108 168.768 196.748 169.598 197.378C171.298 198.668 175.458 200.328 182.778 200.218C190.858 200.098 195.078 198.618 196.778 196.968C197.838 195.938 203.698 184.858 205.108 172.468C206.518 160.078 207.168 154.798 207.168 154.798C207.168 154.798 195.208 157.918 182.348 157.868C170.838 157.828 156.118 156.178 156.118 156.178Z" fill="#66777C"/>
<path d="M198.428 143.208C204.318 140.228 206.548 136.808 213.328 136.288L204.518 127.988L189.978 127.388L181.468 144.068L198.418 143.198L198.428 143.208Z" fill="#6B6828"/>
<path d="M216.238 135.938C224.658 136.018 232.758 135.428 241.938 141.128C251.118 146.828 251.588 150.888 251.588 150.888C251.588 150.888 254.228 137.278 241.658 131.088C229.078 124.898 215.518 125.378 209.828 126.278L216.238 135.938Z" fill="#6B6828"/>
<path d="M172.668 77.0483C171.028 85.4883 168.398 125.118 186.808 136.378L190.498 125.588C190.498 125.588 194.338 111.468 189.558 99.4583C184.768 87.4483 172.668 77.0483 172.668 77.0483Z" fill="#6B6828"/>
<path d="M187.108 122.238C184.658 114.358 175.018 84.8584 174.918 84.5684L175.528 84.3684C175.628 84.6684 185.268 114.168 187.718 122.048L187.108 122.238Z" fill="#545633"/>
<path d="M186.098 123.768C186.098 123.768 192.698 100.628 201.028 95.0783C209.358 89.5283 216.208 84.9384 216.208 84.9384C216.208 84.9384 215.228 91.7383 213.308 99.6383C211.388 107.538 203.758 118.778 199.568 121.968C195.378 125.148 186.098 123.768 186.098 123.768Z" fill="#6B6828"/>
<path d="M193.838 120.248C193.838 120.248 213.278 106.148 222.728 102.688C232.178 99.2183 236.858 94.5383 236.858 94.5383C236.858 94.5383 235.858 100.388 231.458 105.548C227.058 110.708 199.638 126.048 199.638 126.048L193.838 120.258V120.248Z" fill="#6B6828"/>
<path d="M190.198 133.348C195.758 133.018 199.588 128.618 208.528 134.998C217.468 141.378 222.148 145.648 225.158 147.098C228.168 148.548 231.718 149.848 232.958 151.188C232.958 151.188 233.478 144.938 230.748 139.458C226.118 130.188 222.238 123.868 210.968 123.398C199.698 122.918 192.908 127.368 192.908 127.368L190.208 133.358L190.198 133.348Z" fill="#727C47"/>
<path d="M230.678 146.718C228.008 141.048 221.308 130.848 213.118 128.578C206.878 126.848 200.738 128.748 200.678 128.768L200.488 128.158C200.548 128.138 206.858 126.178 213.288 127.968C221.698 130.298 228.538 140.688 231.258 146.458L230.678 146.728V146.718Z" fill="#545633"/>
<path d="M194.118 119.058L193.508 118.888C195.908 110.368 204.828 99.5183 210.158 93.0383C211.718 91.1383 212.948 89.6483 213.548 88.7683L214.078 89.1283C213.468 90.0283 212.228 91.5383 210.658 93.4483C205.358 99.8883 196.488 110.678 194.128 119.058H194.118Z" fill="#545633"/>
<path d="M183.708 133.848C183.708 133.848 183.178 122.958 189.838 118.198C196.498 113.448 208.278 114.368 208.278 114.368C208.278 114.368 204.438 119.448 202.148 122.058C199.858 124.668 194.128 135.968 188.518 137.528C182.908 139.078 183.708 133.858 183.708 133.858V133.848Z" fill="#4D4F2F"/>
<path d="M164.578 134.568C164.578 134.568 160.538 127.848 148.488 129.788C136.438 131.738 127.688 136.618 123.498 155.408C123.498 155.408 129.438 153.498 135.098 150.728C140.758 147.958 143.328 138.798 154.858 138.228C166.388 137.658 164.578 134.568 164.578 134.568Z" fill="#6B6828"/>
<path d="M176.718 116.198C176.718 116.198 173.008 104.448 167.798 100.588C162.588 96.7283 150.668 94.0583 150.668 94.0583C150.668 94.0583 153.018 110.438 176.718 116.188V116.198Z" fill="#6B6828"/>
<path d="M131.078 113.608C140.668 116.878 157.368 120.858 163.278 134.898C169.188 148.938 176.018 132.038 176.018 132.038C176.018 132.038 162.398 112.188 149.948 110.958C137.498 109.728 131.078 113.598 131.078 113.598V113.608Z" fill="#4D4F2F"/>
<path d="M185.328 134.968C185.058 129.818 183.498 123.138 175.688 114.738L164.418 116.618L174.508 136.868L185.328 134.958V134.968Z" fill="#5D6039"/>
<path d="M169.538 132.938C160.948 118.988 146.258 114.968 143.408 114.298L143.558 113.678C147.628 114.628 161.588 118.798 170.088 132.598L169.548 132.928L169.538 132.938Z" fill="#3F3F26"/>
<path d="M171.878 132.828C165.348 131.978 155.448 132.258 151.078 139.108C146.708 145.958 147.128 170.198 153.478 172.318C159.828 174.438 171.878 132.818 171.878 132.818V132.828Z" fill="#6B6828"/>
<path d="M153.808 168.258H153.168C152.878 149.128 158.138 137.668 168.798 134.198L168.998 134.808C158.638 138.178 153.528 149.438 153.808 168.258Z" fill="#545633"/>
<path d="M183.798 134.928C189.138 139.868 197.738 157.498 201.028 164.798C204.318 172.098 209.108 180.838 210.858 183.148C212.608 185.448 215.788 185.398 217.178 179.988C218.568 174.578 218.908 156.328 213.978 146.598C209.058 136.878 201.538 133.558 195.288 133.288C189.038 133.018 183.798 134.928 183.798 134.928Z" fill="#727C47"/>
<path d="M213.428 179.058H212.788C212.698 173.348 211.438 166.678 208.548 156.778C205.568 146.548 199.438 140.368 194.518 135.408L193.818 134.698L194.268 134.248L194.968 134.958C199.938 139.978 206.128 146.218 209.158 156.598C212.058 166.558 213.328 173.268 213.418 179.048L213.428 179.058Z" fill="#545633"/>
<path d="M172.638 132.798C172.108 132.818 171.618 133.068 171.298 133.488C167.368 138.658 160.178 161.998 162.088 172.448C164.088 183.438 164.968 184.528 165.948 184.638C166.928 184.748 172.728 179.268 178.318 168.288C183.598 157.918 187.948 144.298 187.668 133.958C187.638 132.958 186.788 132.178 185.788 132.228L172.648 132.808L172.638 132.798Z" fill="#8E8A35"/>
<path d="M166.868 180.738L166.238 180.638C166.268 180.428 169.808 158.948 171.848 151.138C173.368 145.318 176.038 138.798 178.638 134.548L179.178 134.878C176.608 139.088 173.978 145.528 172.468 151.298C170.428 159.078 166.898 180.528 166.868 180.738Z" fill="#5F683A"/>
<path d="M175.678 114.748C171.008 111.138 162.958 109.628 160.938 109.928C158.918 110.228 141.018 119.718 145.468 131.728C145.818 132.678 154.938 126.248 159.728 124.028C164.518 121.818 175.678 114.748 175.678 114.748Z" fill="#8E8A35"/>
<path d="M147.028 128.558L146.438 128.318C149.478 120.948 160.038 113.498 169.488 112.058L169.588 112.688C160.328 114.098 149.998 121.368 147.028 128.558Z" fill="#5F683A"/>
<path d="M221.018 123.238C215.938 121.908 211.788 120.068 207.228 118.298C202.668 116.528 195.568 115.578 195.568 115.578C195.568 115.578 202.388 113.608 209.008 114.238C215.628 114.868 217.708 120.538 221.028 123.238H221.018Z" fill="#8E8A35"/>
<path d="M258.308 188.888C246.248 192.418 210.318 201.388 198.848 201.688C192.878 201.848 178.148 200.438 173.698 199.328C169.958 198.398 165.438 194.608 163.178 191.038C162.748 190.358 163.448 189.578 164.678 189.838C167.438 190.428 171.628 190.988 173.558 191.288C176.348 191.718 183.418 190.028 183.138 187.938C182.858 185.858 177.678 183.928 174.798 181.268C172.648 179.278 175.028 177.168 177.388 178.698C179.748 180.228 184.798 182.238 189.108 184.048C193.418 185.858 198.698 190.578 202.188 191.188C207.888 192.188 227.658 181.658 236.518 177.578C248.818 171.908 253.858 168.758 256.948 161.848C256.948 161.848 264.698 160.988 280.888 161.848C280.258 175.158 266.888 186.368 258.288 188.888H258.308Z" fill="#EFAA7B"/>
<path d="M252.378 162.358L252.428 161.948C252.478 161.548 257.478 121.968 258.318 114.908L259.018 114.988C258.228 121.658 253.718 157.368 253.188 161.618L256.958 161.488L256.978 162.188L252.388 162.348L252.378 162.358Z" fill="#6B3124"/>
<path d="M221.008 340.658C220.678 335.698 220.208 329.408 219.698 322.428C217.998 299.278 215.668 267.578 215.718 252.138H216.778C216.728 267.538 219.058 299.218 220.758 322.348C221.268 329.328 221.728 335.618 222.068 340.578L221.018 340.648L221.008 340.658Z" fill="#121516"/>
<path d="M108.248 394.208C108.478 403.198 110.328 411.948 108.248 425.318C107.628 429.298 106.808 433.908 105.958 438.418C104.668 445.278 103.308 451.928 102.508 455.778C102.068 457.898 101.798 459.178 101.798 459.178L91.8878 457.568C91.8878 457.568 91.5978 455.958 91.1578 453.308C90.4878 449.268 89.4578 442.788 88.5178 435.858C87.1078 425.378 85.9278 413.878 86.5878 408.258C87.9678 396.508 88.4278 387.288 86.5878 372.318L110.328 369.778C110.328 369.778 108.018 385.218 108.248 394.198V394.208Z" fill="#F29275"/>
<path d="M95.4379 379.648C94.4579 379.648 93.4879 379.548 92.4479 379.268L92.7179 378.278C94.6279 378.798 96.2679 378.638 98.3379 378.428C98.9079 378.368 99.5079 378.308 100.148 378.258L100.228 379.278C99.5979 379.328 99.0079 379.388 98.4479 379.438C97.3979 379.538 96.4179 379.638 95.4479 379.638L95.4379 379.648Z" fill="#AD6F53"/>
<path d="M137.748 448.588C137.678 449.978 137.468 451.268 137.638 453.318C137.758 454.188 138.108 455.128 138.608 456.108C138.948 456.768 139.358 457.448 139.818 458.148L125.358 459.198C125.358 458.978 125.358 458.738 125.338 458.478C125.318 458.198 125.298 457.898 125.268 457.558C124.918 453.548 123.468 446.098 121.998 438.338C120.578 430.898 119.148 423.178 118.618 417.968C117.468 406.448 119.078 392.158 118.618 387.328C118.158 382.488 114.468 370.968 114.468 370.968L140.268 367.968C140.268 367.968 140.038 377.878 140.038 382.718C140.038 387.558 143.488 397.228 143.028 407.828C142.738 414.538 140.598 426.798 139.128 436.348C138.278 441.878 137.838 446.498 137.728 448.608L137.748 448.588Z" fill="#F29275"/>
<path d="M128.568 381.968C126.958 381.968 125.288 381.718 123.998 381.338L124.288 380.358C126.518 381.028 130.098 381.228 131.998 380.378L132.418 381.318C131.378 381.778 129.988 381.978 128.568 381.978V381.968Z" fill="#AD6F53"/>
<path d="M104.008 460.038C104.048 460.548 104.068 461.118 104.048 461.748C103.998 463.148 103.748 464.808 103.178 466.788C100.878 474.858 94.0479 478.358 86.3979 477.388C80.2679 476.608 78.5179 472.318 80.8279 468.628C81.8979 466.928 84.0478 464.528 86.1078 461.978C86.6778 461.278 87.2379 460.558 87.7779 459.848C88.1879 459.298 88.5779 458.758 88.9379 458.208C89.0479 458.038 89.1679 457.868 89.2679 457.698C89.6079 457.158 89.9279 456.618 90.1879 456.098C90.6879 455.118 91.0379 454.178 91.1579 453.308C90.4879 449.268 89.4579 442.788 88.5179 435.858C93.9479 438.288 100.818 438.978 105.958 438.418C104.808 444.548 103.608 450.498 102.788 454.448C102.688 454.918 103.058 456.318 103.488 457.558C103.718 458.188 103.918 459.008 104.008 460.038Z" fill="#F9F5F4"/>
<path d="M103.498 457.558C105.018 462.678 104.388 465.628 103.348 467.558C98.3678 476.868 92.9079 478.248 86.4079 477.388C80.2879 476.578 78.5279 472.318 80.8379 468.628C81.9079 466.928 84.0579 464.528 86.1179 461.978C86.3479 464.578 89.3879 466.048 92.9179 466.228C97.2979 466.458 102.338 463.458 103.498 457.558Z" fill="#375794"/>
<path d="M102.458 462.768C97.9779 460.058 92.9878 459.188 87.7778 459.848C88.1878 459.298 88.5778 458.758 88.9378 458.208C89.0478 458.038 89.1678 457.868 89.2678 457.698C93.9878 456.988 100.588 458.118 103.318 460.038C103.548 460.668 102.368 461.748 102.458 462.768Z" fill="#375794"/>
<path d="M142.398 477.378C134.748 478.348 127.928 474.848 125.618 466.778C125.058 464.798 124.798 463.138 124.748 461.738C124.718 461.108 124.748 460.538 124.788 460.028C124.838 459.488 125.138 458.388 125.308 457.548C125.298 457.548 125.278 457.528 125.268 457.528C124.918 453.518 123.468 446.068 121.998 438.308C126.848 438.668 134.098 438.198 139.148 436.318C138.298 441.848 137.668 446.468 137.748 448.578C137.678 449.968 137.468 451.258 137.638 453.308C137.758 454.178 138.108 455.118 138.608 456.098C138.948 456.758 139.358 457.438 139.818 458.138C139.838 458.168 139.858 458.188 139.868 458.218C140.698 459.468 141.688 460.748 142.698 461.988C144.758 464.538 146.908 466.938 147.978 468.638C150.278 472.328 148.528 476.618 142.408 477.398L142.398 477.378Z" fill="#F9F5F4"/>
<path d="M125.308 457.488C123.788 462.608 124.418 465.558 125.458 467.488C130.438 476.798 135.898 478.178 142.398 477.318C148.518 476.508 150.278 472.248 147.968 468.558C146.898 466.858 144.748 464.458 142.688 461.908C142.458 464.508 139.418 465.978 135.888 466.158C131.508 466.388 126.468 463.388 125.308 457.488Z" fill="#375794"/>
<path d="M126.618 463.028C131.098 460.318 136.088 459.448 141.298 460.108C140.888 459.558 140.498 459.018 140.138 458.468C140.028 458.298 139.908 458.128 139.808 457.958C135.088 457.248 128.488 458.378 125.758 460.298C125.528 460.928 126.708 462.008 126.618 463.028Z" fill="#375794"/>
<path d="M96.1879 140.578C86.4179 139.988 81.6479 147.328 78.7379 157.058C76.0279 166.098 83.8779 173.968 80.9079 182.988C80.0079 185.718 75.2479 188.278 75.5379 194.078C75.8879 200.838 79.7579 200.088 77.6179 204.758C75.4779 209.428 71.6979 216.398 76.7179 220.608C79.8279 223.218 148.138 228.188 148.138 228.188C148.138 228.188 160.508 212.688 151.058 203.418C147.178 199.608 154.308 193.948 148.128 186.378C141.948 178.808 133.838 184.848 135.188 172.718C136.538 160.588 129.018 146.598 119.168 140.848C113.408 137.488 104.818 134.438 96.1779 140.578H96.1879Z" fill="#3D1E27"/>
<path d="M96.1879 207.568C88.2879 209.688 85.9579 210.768 78.4279 213.468C70.8979 216.168 69.9479 219.538 66.4679 231.308C62.9879 243.088 62.0279 252.928 58.7479 257.758C55.4679 262.588 54.2379 270.468 55.4679 273.978C58.6179 283.008 69.3679 286.338 69.3679 286.338L78.4379 293.678C78.4379 293.678 76.3879 305.258 73.5479 315.688C70.7179 326.118 61.8279 368.198 61.8279 368.198C67.2379 375.538 78.8178 377.468 84.2278 377.468C89.6378 377.468 99.6779 374.768 104.888 376.308C110.098 377.848 120.338 378.428 125.358 376.308C128.638 381.518 139.448 378.428 145.438 376.698C151.418 374.958 165.908 367.628 165.908 367.628C165.908 367.628 154.708 317.818 146.218 295.618C156.258 297.158 159.348 290.408 161.468 279.208C163.588 268.008 162.818 242.908 160.308 232.098C157.798 221.288 155.098 215.298 145.638 211.828C136.178 208.348 127.208 206.808 127.208 206.808L96.1979 207.578L96.1879 207.568Z" fill="#F07D9F"/>
<path d="M100.108 193.478C100.258 198.688 102.168 205.448 96.1879 207.568C100.828 217.998 113.158 217.608 113.158 217.608C113.158 217.608 125.758 216.068 127.198 206.798C122.078 202.938 119.018 199.268 119.868 189.228L100.108 193.478Z" fill="#F29275"/>
<path d="M99.2379 141.968C89.1879 143.618 83.6279 161.278 86.4179 172.718C89.2079 184.158 97.1479 200.698 110.828 197.628C124.498 194.558 129.378 173.508 126.308 162.898C123.238 152.298 116.258 139.178 99.2379 141.968Z" fill="#F29275"/>
<path d="M107.578 198.498C105.228 198.498 102.878 197.948 100.548 196.858L100.978 195.928C104.208 197.438 107.488 197.838 110.718 197.118C113.798 196.428 116.568 194.758 118.958 192.158L119.708 192.858C117.168 195.608 114.218 197.378 110.938 198.118C109.818 198.368 108.698 198.498 107.578 198.498Z" fill="#AD6F53"/>
<path d="M95.9179 175.078C96.3079 176.528 95.7179 177.938 94.6179 178.228C93.5079 178.528 92.2979 177.588 91.9179 176.148C91.5379 174.708 92.1179 173.288 93.2179 172.998C94.3179 172.708 95.5379 173.638 95.9179 175.078Z" fill="#1C2F3F"/>
<path d="M114.328 170.418C114.728 171.928 114.118 173.408 112.968 173.708C111.808 174.018 110.548 173.048 110.138 171.538C109.738 170.028 110.348 168.548 111.498 168.248C112.658 167.938 113.918 168.908 114.328 170.418Z" fill="#1C2F3F"/>
<path d="M103.208 181.478C102.728 181.478 102.278 181.368 101.948 181.088C101.668 180.848 101.368 180.408 101.508 179.598C101.548 179.368 101.588 179.148 101.638 178.938C101.848 177.858 102.028 176.918 101.928 175.378L102.948 175.308C103.058 176.988 102.858 178.028 102.638 179.138C102.598 179.348 102.558 179.558 102.518 179.788C102.468 180.048 102.498 180.218 102.608 180.308C102.868 180.518 103.678 180.538 104.918 180.078L105.278 181.038C104.648 181.268 103.898 181.478 103.218 181.478H103.208Z" fill="#AD6F53"/>
<path d="M99.7378 184.918C102.508 189.518 111.878 190.838 113.148 180.818C108.828 183.298 103.808 184.978 99.7378 184.918Z" fill="#FCFCFC"/>
<path d="M97.0478 182.848C97.0478 184.578 95.6478 185.978 93.9178 185.978C92.1878 185.978 90.7878 184.578 90.7878 182.848C90.7878 181.118 92.1878 179.718 93.9178 179.718C95.6478 179.718 97.0478 181.118 97.0478 182.848Z" fill="#FC8481"/>
<path d="M119.868 175.808C119.868 177.538 118.468 178.938 116.738 178.938C115.008 178.938 113.608 177.538 113.608 175.808C113.608 174.078 115.008 172.678 116.738 172.678C118.468 172.678 119.868 174.078 119.868 175.808Z" fill="#FC8481"/>
<path d="M89.2278 171.948C89.0678 171.968 88.8978 171.938 88.7478 171.848C88.3378 171.628 88.1879 171.118 88.4079 170.708C89.2479 169.138 92.2478 167.648 94.5578 168.148C95.0078 168.248 95.2978 168.688 95.2078 169.148C95.1078 169.598 94.6678 169.888 94.2078 169.798C92.5878 169.448 90.3778 170.618 89.8978 171.508C89.7578 171.768 89.5078 171.918 89.2378 171.948H89.2278Z" fill="#3D1E27"/>
<path d="M107.818 166.358C107.598 166.328 107.398 166.218 107.258 166.028C106.988 165.658 107.068 165.148 107.438 164.878C109.298 163.528 112.568 163.668 113.948 164.738C114.308 165.018 114.368 165.538 114.088 165.888C113.808 166.248 113.288 166.308 112.938 166.028C112.158 165.418 109.718 165.248 108.408 166.198C108.228 166.328 108.018 166.378 107.818 166.348V166.358Z" fill="#3D1E27"/>
<path d="M87.7478 177.338C83.5378 163.328 88.5178 159.278 91.1378 155.168C95.3778 148.488 93.3478 148.728 93.8278 142.708C93.9878 140.708 88.4678 143.678 88.4678 143.678C88.4678 143.678 77.6578 151.398 78.8178 164.148C79.9778 176.888 87.7478 177.348 87.7478 177.348V177.338Z" fill="#3D1E27"/>
<path d="M127.188 168.728C126.518 163.448 118.008 156.008 109.418 156.008C100.828 156.008 92.2279 153.688 91.5979 146.928C90.9779 140.168 100.338 139.998 100.338 139.998C100.338 139.998 112.138 136.588 118.958 143.478C128.648 153.258 127.168 168.738 127.168 168.738L127.188 168.728Z" fill="#3D1E27"/>
<path d="M130.708 172.308C130.428 175.028 128.668 177.068 126.768 176.878C124.868 176.688 123.558 174.328 123.838 171.608C124.118 168.888 125.878 166.848 127.778 167.038C129.678 167.228 130.988 169.588 130.708 172.308Z" fill="#F29275"/>
<path d="M139.448 207.828C139.388 207.828 139.318 207.808 139.268 207.758C136.058 204.738 133.958 199.178 134.168 194.238C134.358 189.628 133.588 187.198 130.748 183.398C130.658 183.288 130.688 183.128 130.798 183.038C130.908 182.948 131.068 182.978 131.158 183.088C134.058 186.948 134.878 189.558 134.688 194.258C134.488 199.058 136.518 204.458 139.628 207.378C139.728 207.478 139.738 207.638 139.638 207.738C139.588 207.788 139.518 207.818 139.448 207.818V207.828Z" fill="#35120A"/>
<path d="M84.0379 208.788C83.9379 208.788 83.8379 208.728 83.7979 208.628C82.8779 206.428 83.2279 202.908 84.7579 198.978C86.0479 195.668 86.4979 192.408 84.7579 186.448C84.7179 186.308 84.7979 186.168 84.9279 186.128C85.0679 186.088 85.2079 186.168 85.2479 186.298C87.0379 192.398 86.5679 195.748 85.2479 199.158C83.7879 202.908 83.4279 206.378 84.2779 208.428C84.3279 208.558 84.2779 208.708 84.1379 208.768C84.1079 208.778 84.0679 208.788 84.0379 208.788Z" fill="#35120A"/>
<path d="M81.4778 169.398C81.3978 169.398 81.3078 169.358 81.2578 169.278C79.2578 166.158 79.2578 160.058 81.2578 156.468C82.2578 154.668 83.5478 153.768 84.6878 152.978C85.8978 152.128 86.9478 151.398 87.3578 149.778C88.9578 143.388 92.5178 142.638 95.0678 142.638C95.2178 142.638 95.3578 142.738 95.3578 142.898C95.3578 143.038 95.2378 143.158 95.0978 143.158C95.0878 143.158 95.0778 143.158 95.0678 143.158C90.1778 143.158 88.6378 146.768 87.8478 149.918C87.3978 151.728 86.2178 152.548 84.9778 153.418C83.8278 154.218 82.6478 155.048 81.7078 156.738C79.6178 160.508 79.9778 166.338 81.7078 169.028C81.7878 169.148 81.7478 169.308 81.6278 169.378C81.5878 169.408 81.5378 169.418 81.4878 169.418L81.4778 169.398Z" fill="#35120A"/>
<path d="M78.8179 267.868C78.8179 267.868 78.7779 267.868 78.7579 267.868C78.6179 267.838 78.5279 267.698 78.5679 267.558C79.3179 264.168 80.4879 251.748 80.1079 243.688C80.1079 243.548 80.2079 243.428 80.3479 243.418C80.4779 243.408 80.6079 243.518 80.6179 243.658C81.0079 251.758 79.8279 264.248 79.0679 267.668C79.0379 267.788 78.9379 267.868 78.8179 267.868Z" fill="#59082E"/>
<path d="M55.8578 266.608C55.8578 266.608 55.7778 266.608 55.7378 266.578C55.6178 266.508 55.5678 266.358 55.6278 266.228C57.2078 263.268 62.4678 262.848 67.1078 262.478C67.2578 262.478 67.3678 262.568 67.3878 262.718C67.3978 262.858 67.2978 262.988 67.1478 262.998C62.8578 263.338 57.5278 263.768 56.0778 266.478C56.0278 266.568 55.9478 266.618 55.8478 266.618L55.8578 266.608Z" fill="#59082E"/>
<path d="M155.278 291.618C155.278 291.618 155.268 291.618 155.258 291.618C155.118 291.618 155.008 291.488 155.018 291.348C155.398 284.898 152.808 281.918 149.888 279.198C149.788 279.098 149.778 278.938 149.878 278.838C149.978 278.738 150.138 278.728 150.238 278.828C153.128 281.528 155.928 284.718 155.528 291.388C155.528 291.528 155.408 291.628 155.268 291.628L155.278 291.618Z" fill="#59082E"/>
<path d="M137.688 219.798C128.848 214.418 112.878 210.088 105.258 223.938C98.5479 236.138 111.028 247.768 116.608 249.848C122.188 251.928 136.648 255.048 142.708 245.498C148.758 235.948 144.408 223.898 137.698 219.808L137.688 219.798Z" fill="#E9C9BD"/>
<path d="M105.728 238.498C101.848 233.208 95.7278 224.708 86.4178 231.458C77.5078 237.918 85.7778 251.638 94.9478 253.628C94.9478 253.628 88.1378 260.628 85.3078 265.828C82.4678 271.028 79.6378 276.328 79.6378 276.328C72.0778 273.578 64.0078 275.648 64.0178 282.178C64.0378 288.708 68.6178 296.168 77.0878 296.938C84.8678 297.648 88.4878 293.018 90.6078 287.488C92.3778 289.688 97.9778 293.068 101.478 292.408C99.8678 297.228 101.878 304.478 110.828 307.598C117.728 309.998 127.668 308.578 129.178 302.808C130.688 297.038 126.638 294.428 124.948 293.728C123.918 293.298 120.528 292.818 120.528 292.818C120.528 292.818 120.958 287.698 121.898 285.198C123.598 280.678 133.338 260.448 133.338 260.448L134.288 249.388L105.738 238.518L105.728 238.498Z" fill="#E9C9BD"/>
<path d="M126.068 245.898C124.148 249.698 117.958 250.448 112.238 247.558C106.518 244.678 103.438 239.248 105.348 235.448C107.268 231.648 113.458 230.898 119.178 233.788C124.898 236.668 127.978 242.098 126.068 245.898Z" fill="#F4E2DC"/>
<path d="M119.648 236.518C119.238 237.758 117.498 238.288 115.758 237.718C114.018 237.148 112.948 235.668 113.368 234.428C113.778 233.188 115.518 232.658 117.258 233.228C118.998 233.798 120.068 235.278 119.648 236.518Z" fill="#280D09"/>
<path d="M116.508 229.608C116.508 230.388 115.868 231.028 115.088 231.028C114.308 231.028 113.668 230.388 113.668 229.608C113.668 228.828 114.308 228.188 115.088 228.188C115.868 228.188 116.508 228.828 116.508 229.608Z" fill="#280D09"/>
<path d="M127.188 234.098C127.188 234.858 126.578 235.468 125.818 235.468C125.058 235.468 124.448 234.858 124.448 234.098C124.448 233.338 125.058 232.728 125.818 232.728C126.578 232.728 127.188 233.338 127.188 234.098Z" fill="#280D09"/>
<path d="M113.668 241.588C113.668 241.588 113.638 241.588 113.618 241.588C113.478 241.558 113.388 241.428 113.408 241.288C113.528 240.628 114.388 237.138 115.588 236.568C115.718 236.508 115.868 236.568 115.928 236.688C115.988 236.818 115.928 236.968 115.808 237.028C115.018 237.408 114.138 240.098 113.908 241.378C113.888 241.498 113.778 241.588 113.658 241.588H113.668Z" fill="#1C2F3F"/>
<path d="M116.428 243.648C115.328 243.648 114.158 243.428 113.098 242.988C111.288 242.228 110.088 240.938 109.718 239.348C109.688 239.208 109.768 239.068 109.908 239.038C110.048 239.008 110.188 239.088 110.218 239.228C110.548 240.658 111.648 241.818 113.298 242.518C115.248 243.338 117.698 243.348 119.008 242.548C119.128 242.478 119.288 242.508 119.358 242.638C119.428 242.768 119.398 242.918 119.268 242.988C118.538 243.438 117.518 243.658 116.418 243.658L116.428 243.648Z" fill="#1C2F3F"/>
<path d="M110.338 222.518C107.618 219.678 104.788 211.148 111.218 209.088C117.648 207.038 120.478 213.308 120.998 214.978L110.338 222.518Z" fill="#E9C9BD"/>
<path d="M139.698 230.638C141.398 228.888 150.258 223.868 152.998 230.748C155.738 237.628 149.688 244.468 143.168 242.128C136.648 239.788 139.698 230.638 139.698 230.638Z" fill="#E9C9BD"/>
<path d="M144.528 253.718C139.938 251.378 131.268 248.188 128.678 255.058C124.958 264.888 130.408 269.478 135.798 271.348C142.318 273.608 147.168 272.938 149.808 266.308C151.988 260.848 148.308 255.648 144.528 253.718Z" fill="#E9C9BD"/>
<path d="M75.3978 374.018C75.3978 374.018 75.3778 374.018 75.3678 374.018C75.2278 373.998 75.1278 373.878 75.1478 373.738L81.7278 317.298C81.7478 317.158 81.8678 317.058 82.0078 317.068C82.1478 317.088 82.2478 317.208 82.2278 317.348L75.6478 373.788C75.6278 373.918 75.5178 374.018 75.3978 374.018Z" fill="#59082E"/>
<path d="M124.868 376.238C124.748 376.238 124.638 376.148 124.618 376.028C121.728 360.978 115.158 321.358 115.098 320.958C115.078 320.818 115.168 320.688 115.308 320.658C115.448 320.628 115.578 320.728 115.598 320.868C115.668 321.268 122.228 360.878 125.118 375.928C125.148 376.068 125.058 376.198 124.918 376.228C124.898 376.228 124.888 376.228 124.868 376.228V376.238Z" fill="#59082E"/>
<path d="M157.618 362.218C157.508 362.218 157.408 362.148 157.368 362.028L144.838 317.388C144.798 317.248 144.878 317.108 145.018 317.068C145.158 317.028 145.298 317.108 145.338 317.248L157.868 361.888C157.908 362.028 157.828 362.168 157.688 362.208C157.668 362.208 157.638 362.208 157.618 362.208V362.218Z" fill="#59082E"/>
<path d="M80.5178 266.618C77.4478 267.668 75.8878 270.488 75.8878 272.558C75.8878 274.628 78.6478 276.018 81.4878 277.048C84.3178 278.088 89.2278 281.338 90.2678 282.368C91.8578 283.958 96.8378 288.448 98.4278 289.418C100.018 290.388 100.568 288.588 99.5378 287.208C98.4978 285.828 95.6678 282.718 95.5978 282.158C95.5278 281.608 105.208 285.058 107.208 285.478C109.208 285.888 109.448 283.548 107.858 282.838C106.268 282.128 104.998 281.608 104.998 281.608C104.998 281.608 109.098 283.048 110.858 283.468C112.628 283.878 113.488 281.198 111.108 280.508C113.638 280.718 113.318 278.578 111.698 277.708C109.958 276.768 99.5979 271.798 98.7679 271.178C97.9379 270.558 99.0478 270.558 100.498 271.108C101.948 271.658 103.958 272.288 105.548 272.558C107.138 272.828 108.378 271.588 105.478 269.928C102.578 268.268 97.0478 265.918 91.4478 265.778C85.8478 265.638 82.9478 265.778 80.5278 266.608L80.5178 266.618Z" fill="#F29275"/>
<path d="M124.318 263.418C123.168 262.188 114.268 249.488 113.028 247.018C111.798 244.548 106.588 238.028 105.178 236.608C103.768 235.198 103.058 236.258 103.678 238.198C104.298 240.138 105.268 243.048 105.268 243.838C105.268 244.628 104.638 244.988 103.458 243.578C102.268 242.168 95.2679 237.078 93.5879 235.928C91.9079 234.778 91.0679 235.998 92.1279 237.408C93.1879 238.818 97.7878 243.488 98.0478 244.638C98.3078 245.788 98.2178 246.838 96.9878 245.958C95.7578 245.078 93.5478 243.758 92.3978 243.228C91.2478 242.698 90.6379 243.848 91.4679 245.078C92.3079 246.308 95.6579 249.488 96.0079 250.458C96.3579 251.428 95.9179 252.578 94.5979 251.958C93.2779 251.338 91.4478 250.808 91.0778 251.338C90.7178 251.868 91.7778 253.808 92.4778 254.338C93.1778 254.868 93.3578 256.898 95.2078 258.398C97.0578 259.898 100.678 260.158 104.198 261.048C107.728 261.928 110.548 262.208 112.838 265.108C115.128 268.008 115.928 269.418 115.928 269.418C115.928 269.418 122.278 268.438 124.308 263.418H124.318Z" fill="#F29275"/>
<path d="M146.158 295.338C136.158 293.588 128.658 287.438 123.368 281.338C123.328 281.418 123.278 281.498 123.228 281.578C119.068 276.788 116.268 272.018 114.698 269.408C119.768 268.238 123.378 264.118 124.148 263.168C124.208 263.238 124.298 263.308 124.388 263.398C124.428 263.428 124.538 263.528 124.538 263.528C127.848 266.558 135.598 273.638 142.738 273.078C142.738 273.078 142.748 273.078 142.758 273.078L146.158 295.338Z" fill="#F07D9F"/>
<path d="M124.398 263.398C124.308 263.318 124.228 263.248 124.158 263.168C124.258 263.038 124.318 262.968 124.318 262.968C127.218 265.598 135.388 273.398 142.728 272.818L142.768 273.068C142.768 273.068 142.758 273.068 142.748 273.068C135.608 273.628 127.858 266.548 124.548 263.518C124.548 263.518 124.438 263.418 124.398 263.388V263.398Z" fill="#709AC3"/>
<path d="M146.198 295.608C136.118 293.878 128.558 287.708 123.238 281.578C123.288 281.498 123.328 281.418 123.378 281.338C128.668 287.438 136.168 293.588 146.168 295.338L146.208 295.608H146.198Z" fill="#709AC3"/>
<path d="M142.988 272.808C142.998 272.948 142.898 273.058 142.768 273.078C142.768 273.078 142.758 273.078 142.748 273.078C135.608 273.638 127.858 266.558 124.548 263.528C124.548 263.528 124.438 263.428 124.398 263.398C124.308 263.318 124.228 263.248 124.158 263.168C124.098 263.108 124.068 263.038 124.058 262.968C124.058 262.928 124.078 262.848 124.128 262.798C124.178 262.748 124.258 262.718 124.288 262.708C124.358 262.708 124.428 262.728 124.488 262.778L124.888 263.138C128.148 266.118 135.798 273.098 142.698 272.558C142.848 272.548 142.968 272.648 142.978 272.798L142.988 272.808Z" fill="#59082E"/>
<path d="M146.458 295.648C146.438 295.778 146.328 295.858 146.208 295.858C146.198 295.858 146.178 295.858 146.168 295.858C136.038 294.118 128.448 287.938 123.098 281.798C123.148 281.728 123.198 281.658 123.248 281.578C123.298 281.498 123.338 281.418 123.388 281.338C128.678 287.438 136.178 293.588 146.178 295.338C146.208 295.338 146.238 295.338 146.258 295.348C146.398 295.368 146.488 295.508 146.468 295.648H146.458Z" fill="#59082E"/>
<path d="M131.598 164.338C131.498 164.318 131.418 164.248 131.398 164.148C131.248 163.548 131.128 162.958 130.998 162.368C130.338 159.288 129.708 156.388 126.758 154.438C126.008 153.948 125.188 153.548 124.378 153.168C123.828 152.908 123.268 152.638 122.718 152.338C121.938 151.908 121.338 151.338 120.758 150.798C120.398 150.458 120.018 150.108 119.608 149.798C119.458 149.688 119.308 149.568 119.158 149.448C118.538 148.958 117.888 148.458 117.168 148.148C116.018 147.638 114.698 147.618 113.418 147.598H112.838C110.198 147.518 107.988 147.108 106.068 146.328C104.498 145.688 102.118 144.728 101.018 143.108C100.938 142.988 100.968 142.828 101.088 142.748C101.208 142.668 101.368 142.698 101.448 142.818C102.458 144.308 104.748 145.238 106.268 145.848C108.128 146.598 110.288 146.998 112.858 147.068H113.438C114.768 147.108 116.138 147.128 117.388 147.678C118.168 148.018 118.838 148.538 119.488 149.048C119.638 149.168 119.788 149.278 119.928 149.388C120.358 149.718 120.748 150.078 121.118 150.428C121.698 150.978 122.248 151.488 122.978 151.898C123.508 152.188 124.068 152.458 124.608 152.708C125.428 153.098 126.268 153.498 127.048 154.008C130.168 156.078 130.818 159.078 131.508 162.258C131.638 162.838 131.758 163.428 131.908 164.018C131.938 164.158 131.858 164.298 131.718 164.328C131.678 164.328 131.648 164.328 131.608 164.328L131.598 164.338Z" fill="#35120A"/>
<path d="M104.558 281.578C104.558 281.578 104.508 281.578 104.478 281.568C103.978 281.408 103.128 281.148 102.158 280.858C100.118 280.228 97.5778 279.458 96.4478 279.078C96.3178 279.038 96.2378 278.888 96.2878 278.758C96.3278 278.628 96.4778 278.548 96.6078 278.598C97.7278 278.968 100.268 279.748 102.308 280.368C103.278 280.668 104.128 280.928 104.628 281.078C104.758 281.118 104.838 281.268 104.798 281.398C104.768 281.508 104.658 281.578 104.558 281.578Z" fill="#AD6F53"/>
<path d="M110.568 280.508C110.568 280.508 110.528 280.508 110.508 280.508C106.758 279.618 97.7478 275.618 97.3678 275.448C97.2378 275.388 97.1778 275.238 97.2378 275.108C97.2978 274.978 97.4479 274.918 97.5779 274.978C97.6679 275.018 106.918 279.128 110.628 280.008C110.768 280.038 110.848 280.178 110.818 280.318C110.788 280.438 110.688 280.518 110.568 280.518V280.508Z" fill="#AD6F53"/>
</svg>
