<svg width="35" height="35" viewBox="0 0 35 35" fill="none" xmlns="http://www.w3.org/2000/svg">
<g clip-path="url(#clip0_356_96)">
<path d="M9.5375 7.29167C9.625 8.58958 9.84375 9.85833 10.1937 11.0688L8.44375 12.8188C7.84583 11.0687 7.46667 9.21667 7.33542 7.29167H9.5375ZM23.9167 24.8208C25.1562 25.1708 26.425 25.3896 27.7083 25.4771V27.65C25.7833 27.5187 23.9312 27.1396 22.1667 26.5562L23.9167 24.8208ZM10.9375 4.375H5.83333C5.03125 4.375 4.375 5.03125 4.375 5.83333C4.375 19.5271 15.4729 30.625 29.1667 30.625C29.9688 30.625 30.625 29.9688 30.625 29.1667V24.0771C30.625 23.275 29.9688 22.6188 29.1667 22.6188C27.3583 22.6188 25.5938 22.3271 23.9604 21.7875C23.8146 21.7292 23.6542 21.7146 23.5083 21.7146C23.1292 21.7146 22.7646 21.8604 22.4729 22.1375L19.2646 25.3458C15.1375 23.2312 11.7542 19.8625 9.65417 15.7354L12.8625 12.5271C13.2708 12.1188 13.3875 11.55 13.2271 11.0396C12.6875 9.40625 12.3958 7.65625 12.3958 5.83333C12.3958 5.03125 11.7396 4.375 10.9375 4.375Z" fill="#32B966"/>
</g>
<defs>
<clipPath id="clip0_356_96">
<rect width="35" height="35" fill="white"/>
</clipPath>
</defs>
</svg>
